<svg width="100" height="100" viewBox="0 0 100 100" fill="none" xmlns="http://www.w3.org/2000/svg">
<path d="M25.0088 32.2327H11.0981C10.189 32.2327 9.35874 32.6037 8.75425 33.1905C8.14997 33.7828 7.777 34.5965 7.777 35.4881V73.3913C7.777 74.1997 7.11055 74.8585 6.28611 74.8585C5.45589 74.8585 4.78945 74.1997 4.78945 73.3913V35.4881C4.78945 33.7883 5.50092 32.2438 6.64195 31.1196C7.78298 30.0014 9.36432 29.3037 11.0981 29.3037H25.0086V21.5195C25.0086 20.7111 25.6806 20.0523 26.5052 20.0523C27.3299 20.0523 28.0019 20.7111 28.0019 21.5195V66.9195H73.0375C73.0375 47.0208 73.0375 27.1225 73.0375 7.21853L68.5248 3.39274L63.4983 7.6615C62.9223 8.14861 62.0809 8.13181 61.5328 7.6447L56.5178 3.39274L51.4911 7.6613C50.9207 8.14842 50.0735 8.13162 49.5256 7.64451L44.516 3.39254L39.4839 7.66111C38.9135 8.14822 38.0661 8.13142 37.5182 7.64431L32.5086 3.39235L28.0017 7.21814V14.8807C28.0017 15.6891 27.3297 16.3478 26.505 16.3478C25.6804 16.3478 25.0084 15.6891 25.0084 14.8807V6.55974C25.0084 6.14997 25.1891 5.7404 25.528 5.45231L31.5146 0.369686C32.0625 -0.112151 32.9097 -0.128558 33.4799 0.353279L38.5122 4.62731L43.5216 0.369686C44.0693 -0.112151 44.9165 -0.128558 45.4869 0.353279L50.5192 4.62731L55.529 0.369686C56.0767 -0.112151 56.9239 -0.128558 57.4943 0.353279L62.5208 4.62731L67.5308 0.369686C68.0841 -0.112151 68.9257 -0.128558 69.5021 0.353279L75.4152 5.38024C75.7824 5.64607 76.0251 6.07224 76.0251 6.55974V29.3037H88.9021C90.6359 29.3037 92.2176 30.0014 93.3582 31.1196C94.4991 32.2385 95.2107 33.7883 95.2107 35.4881V85.2009H95.6399C96.5321 85.2009 97.3003 85.3558 97.9385 85.6384C98.5992 85.9371 99.113 86.3689 99.469 86.9172C99.8193 87.4654 100 88.0966 100 88.7886C100 89.4859 99.8079 90.2611 99.4296 91.0808L96.9953 96.3074C96.4759 97.4256 95.8603 98.317 95.0131 98.9594C94.1096 99.6402 93.0309 100 91.647 100H8.35339C6.96969 100 5.89103 99.6402 4.98709 98.9594C4.13994 98.317 3.52429 97.4256 3.00489 96.3074L0.570613 91.0808C0.186485 90.2611 0 89.4916 0 88.7939C0 88.0966 0.180907 87.4652 0.531165 86.9172C0.887001 86.3689 1.40083 85.9371 2.0617 85.6384C2.69985 85.3558 3.46811 85.2009 4.36029 85.2009H4.78945V80.0296C4.78945 79.2212 5.45589 78.5625 6.28611 78.5625C7.11075 78.5625 7.777 79.2212 7.777 80.0296V85.2009H36.7107C37.5354 85.2009 38.2074 85.8545 38.2074 86.6627C38.2074 87.3767 38.507 88.0246 38.987 88.4953C39.4672 88.9656 40.128 89.259 40.8509 89.259H59.1497C59.8726 89.259 60.5334 88.9656 61.0134 88.4953C61.4936 88.0246 61.7928 87.3767 61.7928 86.6627C61.7928 85.8543 62.4648 85.2009 63.2895 85.2009H92.2232V35.4881C92.2232 34.5967 91.8504 33.783 91.2461 33.1905C90.6419 32.6037 89.8116 32.2327 88.9023 32.2327H76.0253V35.0399H88.9023C89.727 35.0399 90.3932 35.693 90.3932 36.5012V43.1395C90.3932 43.9479 89.7268 44.6067 88.9023 44.6067C88.0777 44.6067 87.4057 43.9479 87.4057 43.1395V37.9682H76.0253V61.1612H78.5725C79.7811 61.1612 80.8767 61.6483 81.6728 62.4235C82.4636 63.204 82.9551 64.2782 82.9551 65.4573V71.3095C82.9551 72.4943 82.4636 73.5681 81.6728 74.3492C80.8767 75.1244 79.7811 75.6058 78.5725 75.6058H22.4615C21.253 75.6058 20.1574 75.1244 19.3666 74.3492C18.5702 73.5683 18.0789 72.4945 18.0789 71.3095V65.4573C18.0789 64.2782 18.5702 63.204 19.3666 62.4235C20.1574 61.6483 21.253 61.1612 22.4615 61.1612H25.0088V37.9684H13.6284V79.4652H87.4057V49.778C87.4057 48.9643 88.0777 48.3108 88.9023 48.3108C89.727 48.3108 90.3932 48.9643 90.3932 49.778V80.9324C90.3932 81.7408 89.7268 82.3941 88.9023 82.3941H12.1317C11.3071 82.3941 10.6408 81.7406 10.6408 80.9324V36.5014C10.6408 35.693 11.3073 35.0401 12.1317 35.0401H25.0088V32.2327ZM34.9543 52.2915C34.1296 52.2915 33.4634 51.6384 33.4634 50.8302C33.4634 50.0161 34.1298 49.363 34.9543 49.363H66.0794C66.904 49.363 67.576 50.0161 67.576 50.8302C67.576 51.6386 66.904 52.2915 66.0794 52.2915H34.9543ZM34.9543 63.6196C34.1296 63.6196 33.4634 62.9661 33.4634 62.1579C33.4634 61.3442 34.1298 60.6903 34.9543 60.6903H59.3414C60.166 60.6903 60.8323 61.3442 60.8323 62.1579C60.8323 62.9663 60.1658 63.6196 59.3414 63.6196H34.9543ZM34.9543 57.9556C34.1296 57.9556 33.4634 57.302 33.4634 56.4938C33.4634 55.6802 34.1298 55.0266 34.9543 55.0266H66.0794C66.904 55.0266 67.576 55.6802 67.576 56.4938C67.576 57.3022 66.904 57.9556 66.0794 57.9556H34.9543ZM56.5063 17.3229C57.1219 17.8652 57.1671 18.79 56.6192 19.3877C56.0658 19.9912 55.1226 20.0354 54.5127 19.4982C54.5071 19.493 53.5354 18.6182 51.8523 18.3248V27.1055C52.4058 27.316 52.9933 27.5262 53.6086 27.7367C56.1729 28.628 57.7204 30.3219 58.4036 32.2823C58.8327 33.5278 58.9063 34.8733 58.6522 36.1686C58.4036 37.4477 57.8445 38.6877 57.0087 39.751C55.8058 41.2735 54.0495 42.4305 51.8521 42.8069V45.0714C51.8521 45.8798 51.1857 46.5331 50.3554 46.5331C49.5308 46.5331 48.8645 45.8796 48.8645 45.0714V42.918C48.023 42.8848 47.289 42.802 46.5546 42.6247C45.3855 42.3424 44.2955 41.8442 42.906 40.9526C42.217 40.5096 42.025 39.6018 42.4768 38.9262C42.9287 38.2506 43.8549 38.0625 44.5439 38.4997C45.6395 39.2032 46.453 39.5907 47.2717 39.7844C47.7574 39.9061 48.2714 39.9672 48.8643 39.9946V29.0707C47.5484 28.5008 46.2213 27.8364 45.0858 26.967C44.1765 26.2697 43.5667 25.3229 43.2447 24.2766C42.9285 23.2524 42.889 22.1229 43.1092 21.0264C43.3294 19.9414 43.8037 18.8783 44.5268 17.9758C45.3401 16.9572 46.4584 16.1488 47.8646 15.7334C48.2035 15.6334 48.5366 15.5508 48.8643 15.4896V13.4473C48.8643 12.6389 49.5308 11.9801 50.3552 11.9801C51.1855 11.9801 51.8519 12.6389 51.8519 13.4473V15.3795C54.7444 15.7279 56.5007 17.3172 56.5063 17.3229ZM48.8649 18.4967C48.8141 18.5078 48.7633 18.5242 48.7123 18.5352C47.9387 18.7678 47.3231 19.2107 46.877 19.7754C46.4534 20.3014 46.1709 20.9324 46.041 21.5859C45.9111 22.2283 45.928 22.8703 46.1033 23.4406C46.2559 23.9336 46.5269 24.3652 46.9166 24.6645C47.4474 25.0742 48.0969 25.4617 48.8649 25.8383V18.4967ZM51.8525 30.2285V39.818C53.0272 39.4967 53.9762 38.8215 54.6484 37.9686C55.1961 37.2709 55.5633 36.4625 55.7213 35.6321C55.8797 34.8184 55.84 33.9823 55.5746 33.2186C54.9421 31.3969 53.5299 30.8262 51.8525 30.2285ZM76.0251 64.0901V68.3866C76.0251 69.195 75.353 69.8484 74.5284 69.8484H26.5052C25.6806 69.8484 25.0086 69.1948 25.0086 68.3866V64.0901H22.4613C22.0772 64.0901 21.7329 64.2454 21.4785 64.4944C21.2245 64.7435 21.0663 65.0868 21.0663 65.4577V71.3099C21.0663 71.6865 21.2245 72.0298 21.4785 72.2788C21.7327 72.5222 22.0772 72.6775 22.4613 72.6775H78.5723C78.9564 72.6775 79.3065 72.5222 79.5551 72.2788C79.8092 72.0298 79.9672 71.6865 79.9672 71.3099V65.4577C79.9672 65.087 79.8092 64.7437 79.5551 64.4944C79.3065 64.2454 78.9564 64.0901 78.5723 64.0901H76.0251ZM8.35339 97.066H91.6468C92.3304 97.066 92.8273 96.9223 93.1887 96.6453C93.6123 96.324 93.9625 95.798 94.2899 95.0949L96.7184 89.8683C96.8596 89.575 97.1475 88.7888 96.9443 88.4732C96.7467 88.1685 95.9559 88.1299 95.6397 88.1299H64.5827C64.3173 89.0652 63.8089 89.9013 63.1255 90.566C62.1088 91.5681 60.6968 92.1885 59.1493 92.1885H40.8505C39.303 92.1885 37.8908 91.5681 36.8687 90.566C36.1911 89.9015 35.6829 89.0599 35.4175 88.1299H4.36029C4.0441 88.1299 3.25333 88.1683 3.05569 88.4732C2.85227 88.7886 3.14057 89.575 3.28162 89.8683L5.70992 95.0949C6.03766 95.798 6.38772 96.324 6.80572 96.6453C7.17271 96.9221 7.66981 97.066 8.35339 97.066Z" fill="#3E563E"/>
</svg>
