<svg width="100" height="100" viewBox="0 0 100 100" fill="none" xmlns="http://www.w3.org/2000/svg">
<path d="M85.8874 82.7906C85.8655 77.4969 85.8827 61.2328 85.8999 45.4406C85.9171 26.5141 85.9374 6.94219 85.8983 4.6375L85.8561 2.2125L77.8671 6.0125L72.7577 2.82344L67.7561 5.94844L62.7561 2.82344L57.7577 5.94844L52.764 2.82344L47.7671 5.94844L42.7687 2.82344L37.6671 6.0125L29.6499 2.19063V19.2188C28.0999 18.9016 26.5312 18.7297 24.9624 18.7297C12.039 18.7297 1.5249 29.2438 1.5249 42.1672C1.5249 55.0906 12.039 65.6047 24.9624 65.6047C26.5327 65.6047 28.1015 65.4344 29.6499 65.1156V90.6047C29.6499 94.9125 33.1546 98.4172 37.4624 98.4172H90.5874C94.8952 98.4172 98.3999 94.9125 98.3999 90.6047V82.7922H85.8874V82.7906ZM29.6483 41.8219C28.8171 41.0719 27.728 40.6031 26.5233 40.6031H23.3983C22.5358 40.6031 21.8358 39.9016 21.8358 39.0406C21.8358 38.1797 22.5358 37.4781 23.3983 37.4781H26.5233C27.3858 37.4781 28.0858 38.1797 28.0858 39.0406H29.6483V41.8219ZM29.6483 35.5719C28.8171 34.8219 27.728 34.3531 26.5233 34.3531V31.2281H23.3983V34.3531C20.814 34.3531 18.7108 36.4563 18.7108 39.0406C18.7108 41.625 20.814 43.7281 23.3983 43.7281H26.5233C27.3858 43.7281 28.0858 44.4297 28.0858 45.2906C28.0858 46.1516 27.3858 46.8531 26.5233 46.8531H23.3983C22.5358 46.8531 21.8358 46.1516 21.8358 45.2906H18.7108C18.7108 47.875 20.814 49.9781 23.3983 49.9781V53.1031H26.5233V49.9781C27.728 49.9781 28.8171 49.5078 29.6483 48.7594V55.4047C28.1405 55.9422 26.5702 56.2297 24.9608 56.2297C17.2062 56.2297 10.8983 49.9203 10.8983 42.1672C10.8983 34.4141 17.2062 28.1047 24.9608 28.1047C26.5702 28.1047 28.1405 28.3922 29.6483 28.9281V35.5719ZM24.9608 62.4781C13.7608 62.4781 4.64834 53.3656 4.64834 42.1656C4.64834 30.9656 13.7608 21.8531 24.9608 21.8531C26.5312 21.8531 28.1015 22.0484 29.6483 22.4156V25.65C28.1265 25.2156 26.5608 24.9766 24.9608 24.9766C15.4843 24.9766 7.77334 32.6875 7.77334 42.1641C7.77334 51.6406 15.4843 59.3516 24.9608 59.3516C26.5608 59.3516 28.1265 59.1125 29.6483 58.6781V61.9125C28.103 62.2828 26.5327 62.4781 24.9608 62.4781ZM42.1483 90.6031C42.1483 93.1875 40.0452 95.2906 37.4608 95.2906C34.8765 95.2906 32.7733 93.1875 32.7733 90.6031V7.14063L37.8702 9.56875L42.7671 6.50782L47.7655 9.63282L52.7624 6.50782L57.7561 9.63282L62.7546 6.50782L67.7546 9.63282L72.7561 6.50782L77.6608 9.56875L82.7874 7.13125C82.8061 13.3719 82.789 29.6281 82.7733 45.4375C82.7561 61.8922 82.7405 77.55 82.7608 82.7906H42.1483V90.6031ZM95.2733 90.6031C95.2733 93.1875 93.1702 95.2906 90.5858 95.2906H43.7077C44.6905 93.9844 45.2733 92.3609 45.2733 90.6031V85.9156H95.2733V90.6031Z" fill="#3E563E"/>
<path d="M35.8982 51.5391H79.6482V14.0391H35.8982V51.5391ZM56.2107 20.2906V23.4156H53.0857V17.1656H62.4607V23.4156H59.3357V20.2906H56.2107ZM39.0232 17.1641H49.9607V26.5391H65.5857V17.1641H76.5232V48.4141H39.0232V17.1641Z" fill="#3E563E"/>
<path d="M64.0233 42.1656H73.3983V45.2906H64.0233V42.1656Z" fill="#3E563E"/>
<path d="M64.0233 35.9156H73.3983V39.0406H64.0233V35.9156Z" fill="#3E563E"/>
<path d="M39.1046 61.9125L37.0031 59.8109L34.7937 62.0203L38.9406 66.1688L50.9765 55.8516L48.9437 53.4797L39.1046 61.9125Z" fill="#3E563E"/>
<path d="M54.6483 54.6656H79.6483V57.7906H54.6483V54.6656Z" fill="#3E563E"/>
<path d="M76.5233 60.9156H79.6483V64.0406H76.5233V60.9156Z" fill="#3E563E"/>
<path d="M54.6483 60.9156H73.3983V64.0406H54.6483V60.9156Z" fill="#3E563E"/>
<path d="M39.1046 77.5375L37.0031 75.4359L34.7937 77.6453L38.9406 81.7938L50.9765 71.4766L48.9437 69.1047L39.1046 77.5375Z" fill="#3E563E"/>
<path d="M54.6483 70.2906H79.6483V73.4156H54.6483V70.2906Z" fill="#3E563E"/>
<path d="M76.5233 76.5406H79.6483V79.6656H76.5233V76.5406Z" fill="#3E563E"/>
<path d="M54.6483 76.5406H73.3983V79.6656H54.6483V76.5406Z" fill="#3E563E"/>
</svg>
