<svg width="100" height="100" viewBox="0 0 100 100" fill="none" xmlns="http://www.w3.org/2000/svg">
<g clip-path="url(#clip0_3:3155)">
<path d="M98.3216 45.5218L83.1661 30.3663V12.8592C83.1661 9.69362 80.6009 7.12821 77.4307 7.12821C74.2678 7.12821 71.7026 9.69362 71.7026 12.8592V18.903L60.4181 7.61812C54.839 2.042 45.1387 2.05189 39.5722 7.62821L1.67786 45.5218C-0.559125 47.7632 -0.559125 51.39 1.67786 53.628C3.91586 55.8688 7.54971 55.8688 9.7869 53.628L47.6776 15.7334C48.912 14.5055 51.0876 14.5055 52.3155 15.7298L90.2127 53.628C91.3365 54.7485 92.8016 55.3058 94.2662 55.3058C95.7339 55.3058 97.2015 54.7479 98.3218 53.628C100.56 51.3902 100.56 47.7634 98.3216 45.5218Z" fill="#3E563E"/>
<path d="M51.9907 26.6121C50.8898 25.5118 49.1072 25.5118 48.0095 26.6121L14.6775 59.9342C14.1513 60.4603 13.8529 61.1785 13.8529 61.928V86.2319C13.8529 91.935 18.4771 96.5589 24.18 96.5589H40.6826V71.0017H59.3139V96.5589H75.8168C81.5195 96.5589 86.1437 91.935 86.1437 86.2321V61.928C86.1437 61.1785 85.8479 60.4603 85.3191 59.9342L51.9907 26.6121Z" fill="#3E563E"/>
</g>
<defs>
<clipPath id="clip0_3:3155">
<rect width="100" height="100" fill="white"/>
</clipPath>
</defs>
</svg>
