<svg width="41" height="70" viewBox="0 0 41 70" fill="none" xmlns="http://www.w3.org/2000/svg">
<path d="M20.0131 17.798C17.8716 17.798 15.7782 17.276 13.9977 16.2982C12.2171 15.3204 10.8293 13.9305 10.0098 12.3045C9.19024 10.6784 8.97582 8.88911 9.3936 7.16287C9.81139 5.43664 10.8426 3.851 12.3569 2.60645C13.8711 1.36191 15.8004 0.514364 17.9008 0.170995C20.0011 -0.172374 22.1782 0.0038558 24.1567 0.677398C26.1351 1.35094 27.8262 2.49154 29.0159 3.95497C30.2057 5.4184 30.8407 7.13893 30.8407 8.89898C30.8388 11.2586 29.6974 13.5212 27.6672 15.1897C25.6371 16.8583 22.8842 17.7964 20.0131 17.798ZM20.0131 2.00777C18.3529 2.00777 16.7299 2.4124 15.3494 3.1705C13.969 3.92859 12.8931 5.0061 12.2577 6.26677C11.6223 7.52743 11.4561 8.91463 11.78 10.2529C12.1039 11.5913 12.9034 12.8206 14.0774 13.7855C15.2514 14.7503 16.7471 15.4074 18.3755 15.6736C20.0038 15.9398 21.6917 15.8032 23.2255 15.281C24.7594 14.7588 26.0704 13.8745 26.9928 12.74C27.9152 11.6054 28.4075 10.2715 28.4075 8.90698C28.4075 7.07719 27.5231 5.32235 25.9489 4.0285C24.3746 2.73465 22.2395 2.00777 20.0131 2.00777Z" fill="black"/>
<path d="M32.9055 48.4025H30.5186C30.1959 48.4025 29.8865 48.2971 29.6583 48.1096C29.4302 47.9221 29.302 47.6678 29.302 47.4026C29.302 47.1374 29.4302 46.8831 29.6583 46.6956C29.8865 46.5081 30.1959 46.4027 30.5186 46.4027H32.9043C34.1516 46.4017 35.3475 45.994 36.2295 45.2691C37.1115 44.5442 37.6076 43.5613 37.6088 42.5362V26.805C37.6069 25.6286 37.0377 24.5007 36.0259 23.6686C35.0141 22.8365 33.6422 22.3679 32.2109 22.3655H7.87923C6.44701 22.3668 5.0739 22.8349 4.06105 23.6672C3.04821 24.4994 2.47832 25.6279 2.47639 26.805V42.5412C2.47929 43.566 2.97657 44.548 3.85917 45.2719C4.74178 45.9958 5.93766 46.4025 7.18456 46.4027H9.4839C9.80656 46.4027 10.116 46.5081 10.3442 46.6956C10.5723 46.8831 10.7005 47.1374 10.7005 47.4026C10.7005 47.6678 10.5723 47.9221 10.3442 48.1096C10.116 48.2971 9.80656 48.4025 9.4839 48.4025H7.18456C5.29212 48.4009 3.47774 47.7823 2.13959 46.6825C0.80143 45.5827 0.0488074 44.0915 0.046875 42.5362V26.805C0.0494491 25.0982 0.875391 23.4619 2.34362 22.2548C3.81184 21.0477 5.80253 20.3684 7.87923 20.3657H32.2109C34.2882 20.3676 36.2798 21.0466 37.7488 22.2537C39.2179 23.4609 40.0443 25.0977 40.0469 26.805V42.5412C40.0433 44.0962 39.2895 45.5865 37.9507 46.6854C36.6119 47.7842 34.7976 48.4017 32.9055 48.4025Z" fill="black"/>
<path d="M25.2602 70C23.5549 69.9984 21.92 69.441 20.7142 68.4499C19.5083 67.4589 18.8301 66.1152 18.8281 64.7136V48.0525C18.8281 47.7874 18.9563 47.533 19.1845 47.3455C19.4126 47.158 19.722 47.0527 20.0447 47.0527C20.3674 47.0527 20.6768 47.158 20.905 47.3455C21.1331 47.533 21.2613 47.7874 21.2613 48.0525V64.7136C21.2613 65.5853 21.6826 66.4212 22.4325 67.0376C23.1825 67.654 24.1996 68.0002 25.2602 68.0002C26.3208 68.0002 27.3379 67.654 28.0878 67.0376C28.8378 66.4212 29.2591 65.5853 29.2591 64.7136V33.1303C29.2591 32.8651 29.3873 32.6107 29.6154 32.4232C29.8436 32.2357 30.153 32.1304 30.4757 32.1304C30.7983 32.1304 31.1078 32.2357 31.3359 32.4232C31.5641 32.6107 31.6923 32.8651 31.6923 33.1303V64.7136C31.6903 66.1152 31.012 67.4589 29.8062 68.4499C28.6004 69.441 26.9655 69.9984 25.2602 70Z" fill="black"/>
<path d="M14.8295 70C13.1242 69.9984 11.4893 69.441 10.2835 68.4499C9.07767 67.4589 8.39939 66.1152 8.39746 64.7136V33.1303C8.39746 32.8651 8.52564 32.6107 8.75379 32.4232C8.98194 32.2357 9.29139 32.1304 9.61404 32.1304C9.9367 32.1304 10.2461 32.2357 10.4743 32.4232C10.7024 32.6107 10.8306 32.8651 10.8306 33.1303V64.7136C10.8306 65.5853 11.2519 66.4212 12.0019 67.0376C12.7518 67.654 13.769 68.0002 14.8295 68.0002C15.8901 68.0002 16.9072 67.654 17.6572 67.0376C18.4071 66.4212 18.8284 65.5853 18.8284 64.7136V48.0525C18.8284 47.7874 18.9566 47.533 19.1848 47.3455C19.4129 47.158 19.7224 47.0527 20.045 47.0527C20.3677 47.0527 20.6771 47.158 20.9053 47.3455C21.1334 47.533 21.2616 47.7874 21.2616 48.0525V64.7136C21.2597 66.1152 20.5814 67.4589 19.3756 68.4499C18.1697 69.441 16.5348 69.9984 14.8295 70Z" fill="black"/>
</svg>
