<svg width="181" height="127" viewBox="0 0 181 127" fill="none" xmlns="http://www.w3.org/2000/svg">
<path d="M90.3154 59.2668C105.496 59.2668 117.803 45.9994 117.803 29.6334C117.803 13.2673 105.496 0 90.3154 0C75.1346 0 62.8281 13.2673 62.8281 29.6334C62.8281 45.9994 75.1346 59.2668 90.3154 59.2668Z" fill="#7334FF"/>
<path d="M145.289 76.1997C156.133 76.1997 164.923 66.7231 164.923 55.0332C164.923 43.3433 156.133 33.8667 145.289 33.8667C134.446 33.8667 125.656 43.3433 125.656 55.0332C125.656 66.7231 134.446 76.1997 145.289 76.1997Z" fill="#7334FF"/>
<path d="M35.8982 76.1997C46.7416 76.1997 55.5318 66.7231 55.5318 55.0332C55.5318 43.3433 46.7416 33.8667 35.8982 33.8667C25.0549 33.8667 16.2646 43.3433 16.2646 55.0332C16.2646 66.7231 25.0549 76.1997 35.8982 76.1997Z" fill="#7334FF"/>
<path d="M90.3153 67.7334C62.1683 67.7334 39.2676 92.4221 39.2676 122.767C39.2676 125.103 41.0269 127 43.1944 127H137.436C139.604 127 141.363 125.103 141.363 122.767C141.363 92.4221 118.462 67.7334 90.3153 67.7334Z" fill="#7334FF"/>
<path d="M42.668 85.5809C40.2648 85.0304 37.8222 84.6665 35.3407 84.6665C15.8562 84.6665 0 101.761 0 122.766C0 125.103 1.7593 127 3.92686 127H32.1364C31.6965 125.671 31.4138 124.257 31.4138 122.766C31.4138 108.873 35.6234 96.0457 42.668 85.5809Z" fill="#7334FF"/>
<path d="M145.287 84.6665C142.806 84.6665 140.363 85.0304 137.96 85.5809C145.005 96.0457 149.214 108.873 149.214 122.766C149.214 124.257 148.931 125.67 148.491 127H176.701C178.869 127 180.628 125.103 180.628 122.766C180.628 101.761 164.772 84.6665 145.287 84.6665Z" fill="#7334FF"/>
</svg>
