<svg width="23" height="22" viewBox="0 0 23 22" fill="none" xmlns="http://www.w3.org/2000/svg">
<g clip-path="url(#clip0)">
<path d="M14.567 7.9707C14.2716 7.9707 14.0322 8.20135 14.0322 8.48593V18.2236C14.0322 18.508 14.2716 18.7388 14.567 18.7388C14.8624 18.7388 15.1018 18.508 15.1018 18.2236V8.48593C15.1018 8.20135 14.8624 7.9707 14.567 7.9707Z" fill="#FF0000"/>
<path d="M8.25746 7.9707C7.96206 7.9707 7.72266 8.20135 7.72266 8.48593V18.2236C7.72266 18.508 7.96206 18.7388 8.25746 18.7388C8.55285 18.7388 8.79226 18.508 8.79226 18.2236V8.48593C8.79226 8.20135 8.55285 7.9707 8.25746 7.9707Z" fill="#FF0000"/>
<path d="M3.65856 6.54961V19.2436C3.65856 19.9939 3.94414 20.6985 4.44301 21.204C4.93957 21.711 5.63064 21.9988 6.35387 22H16.4724C17.1959 21.9988 17.8869 21.711 18.3833 21.204C18.8822 20.6985 19.1677 19.9939 19.1677 19.2436V6.54961C20.1594 6.29603 20.802 5.37306 20.6693 4.39273C20.5365 3.4126 19.6697 2.67942 18.6436 2.67922H15.9055V2.03519C15.9086 1.4936 15.6863 0.973553 15.2884 0.590962C14.8904 0.208571 14.3497 -0.00435998 13.7876 6.76958e-05H9.03872C8.47656 -0.00435998 7.93591 0.208571 7.53795 0.590962C7.13998 0.973553 6.9177 1.4936 6.92084 2.03519V2.67922H4.18271C3.15656 2.67942 2.28981 3.4126 2.15695 4.39273C2.02429 5.37306 2.66689 6.29603 3.65856 6.54961ZM16.4724 20.9696H6.35387C5.43949 20.9696 4.72816 20.2128 4.72816 19.2436V6.5949H18.0981V19.2436C18.0981 20.2128 17.3868 20.9696 16.4724 20.9696ZM7.99044 2.03519C7.98688 1.76691 8.09635 1.5087 8.29398 1.31931C8.49139 1.12993 8.76004 1.02588 9.03872 1.03051H13.7876C14.0663 1.02588 14.3349 1.12993 14.5323 1.31931C14.7299 1.5085 14.8394 1.76691 14.8359 2.03519V2.67922H7.99044V2.03519ZM4.18271 3.70966H18.6436C19.1753 3.70966 19.6062 4.12485 19.6062 4.63706C19.6062 5.14926 19.1753 5.56445 18.6436 5.56445H4.18271C3.65104 5.56445 3.22007 5.14926 3.22007 4.63706C3.22007 4.12485 3.65104 3.70966 4.18271 3.70966Z" fill="#FF0000"/>
<path d="M11.4127 7.9707C11.1173 7.9707 10.8779 8.20135 10.8779 8.48593V18.2236C10.8779 18.508 11.1173 18.7388 11.4127 18.7388C11.7081 18.7388 11.9475 18.508 11.9475 18.2236V8.48593C11.9475 8.20135 11.7081 7.9707 11.4127 7.9707Z" fill="#FF0000"/>
</g>
<defs>
<clipPath id="clip0">
<rect width="22.836" height="22" fill="white"/>
</clipPath>
</defs>
</svg>
