<svg width="23" height="22" viewBox="0 0 23 22" fill="none" xmlns="http://www.w3.org/2000/svg">
<g clip-path="url(#clip0)">
<path d="M18.0784 11.0424C17.5523 11.0424 17.127 11.4531 17.127 11.959V19.2924C17.127 19.7974 16.7007 20.209 16.1755 20.209H2.8545C2.32921 20.209 1.90306 19.7974 1.90306 19.2924V6.45898C1.90306 5.95393 2.32921 5.54237 2.8545 5.54237H10.4665C10.9927 5.54237 11.418 5.13165 11.418 4.62576C11.418 4.11971 10.9927 3.70898 10.4665 3.70898H2.8545C1.28073 3.70898 0 4.94283 0 6.45898V19.2924C0 20.8085 1.28073 22.0424 2.8545 22.0424H16.1755C17.7493 22.0424 19.03 20.8085 19.03 19.2924V11.959C19.03 11.4521 18.6046 11.0424 18.0784 11.0424Z" fill="#00CC08"/>
<path d="M8.92066 10.2072C8.85411 10.2714 8.80933 10.3529 8.79034 10.4409L8.11766 13.6823C8.0863 13.8326 8.13578 13.9875 8.24798 14.0966C8.3384 14.1837 8.46019 14.2304 8.58493 14.2304C8.61525 14.2304 8.64678 14.2277 8.67814 14.2213L12.0417 13.5732C12.1349 13.5548 12.2196 13.5118 12.2853 13.4475L19.8135 6.19487L16.45 2.95459L8.92066 10.2072Z" fill="#00CC08"/>
<path d="M22.1394 0.713306C21.2118 -0.180477 19.7026 -0.180477 18.7758 0.713306L17.459 1.98189L20.8226 5.22234L22.1394 3.95359C22.5885 3.52188 22.8359 2.94617 22.8359 2.33387C22.8359 1.72156 22.5885 1.14585 22.1394 0.713306Z" fill="#00CC08"/>
</g>
<defs>
<clipPath id="clip0">
<rect width="22.836" height="22" fill="white"/>
</clipPath>
</defs>
</svg>
