<svg width="30" height="30" viewBox="0 0 30 30" fill="none" xmlns="http://www.w3.org/2000/svg">
<path d="M17.9297 18.5156C17.9297 16.9002 16.6154 15.5859 15 15.5859C13.3846 15.5859 12.0703 16.9002 12.0703 18.5156C12.0703 20.1311 13.3846 21.4453 15 21.4453C16.6154 21.4453 17.9297 20.1311 17.9297 18.5156Z" fill="white"/>
<path d="M0.146777 18.1277C-0.0489258 18.3493 -0.0489258 18.6819 0.146777 18.9035C0.212168 18.9775 1.77803 20.7367 4.38668 22.5154C7.51699 24.6497 11.212 26.1328 15 26.1328C18.7886 26.1328 22.4835 24.6493 25.6133 22.5154C28.2219 20.7367 29.7878 18.9776 29.8532 18.9035C30.0489 18.6819 30.0489 18.3493 29.8532 18.1277C29.7878 18.0537 28.2219 16.2945 25.6133 14.5158C22.4829 12.3816 18.788 10.8984 15 10.8984C11.2114 10.8984 7.51646 12.3819 4.38674 14.5159C1.77803 16.2945 0.212168 18.0537 0.146777 18.1277ZM8.55469 18.5156C8.55469 14.9454 11.4625 12.0703 15 12.0703C18.5428 12.0703 21.4453 14.9511 21.4453 18.5156C21.4453 22.0858 18.5375 24.9609 15 24.9609C11.4572 24.9609 8.55469 22.0802 8.55469 18.5156ZM24.9271 15.4664C26.714 16.6814 28.0095 17.9099 28.6067 18.5159C28.0137 19.1181 26.7312 20.3348 24.9531 21.5471C23.7359 22.377 22.1503 23.2918 20.3159 23.9654C21.7346 22.5812 22.6172 20.6497 22.6172 18.5156C22.6172 16.3815 21.7346 14.45 20.3158 13.0657C22.1394 13.7353 23.7159 14.6429 24.9271 15.4664ZM9.68408 13.0658C8.26535 14.45 7.38281 16.3816 7.38281 18.5156C7.38281 20.6497 8.26535 22.5813 9.6842 23.9655C7.86059 23.2959 6.284 22.3884 5.07287 21.5648C3.28617 20.35 1.99066 19.1215 1.3933 18.5154C1.98633 17.9131 3.26883 16.6965 5.04686 15.4842C6.26414 14.6542 7.8498 13.7394 9.68408 13.0658Z" fill="white"/>
<path d="M10.0196 9.88904C10.2999 9.72726 10.3959 9.3689 10.2341 9.08865L8.47628 6.04406C8.3145 5.76375 7.95608 5.66777 7.67588 5.82961C7.39563 5.99139 7.29959 6.34974 7.46143 6.63L9.21924 9.67459C9.38178 9.95625 9.74067 10.0501 10.0196 9.88904Z" fill="white"/>
<path d="M22.3243 5.82959C22.0441 5.66776 21.6857 5.76379 21.5239 6.04405L19.7661 9.08864C19.6043 9.36889 19.7003 9.72725 19.9806 9.88903C20.2596 10.0501 20.6185 9.95606 20.781 9.67458L22.5388 6.62999C22.7006 6.34973 22.6046 5.99137 22.3243 5.82959Z" fill="white"/>
<path d="M15.5859 7.96875V4.45312C15.5859 4.12951 15.3236 3.86719 15 3.86719C14.6764 3.86719 14.4141 4.12951 14.4141 4.45312V7.96875C14.4141 8.29236 14.6764 8.55469 15 8.55469C15.3236 8.55469 15.5859 8.29236 15.5859 7.96875Z" fill="white"/>
</svg>
