<svg width="49" height="49" viewBox="0 0 49 49" fill="none" xmlns="http://www.w3.org/2000/svg">
<g clip-path="url(#clip0)">
<path d="M46.2953 8.6594e-08H2.70249C1.20975 0.000747767 -0.000373754 1.21162 8.6594e-08 2.70473V46.2975C0.000747767 47.7903 1.21162 49.0004 2.70473 49H46.2953C47.7888 49.0004 48.9996 47.7899 49 46.2964C49 46.296 49 46.2956 49 46.2953V2.70249C48.9993 1.20975 47.7884 -0.000373754 46.2953 8.6594e-08Z" fill="#4267B2"/>
<path d="M33.8311 49.0002V30.051H40.2192L41.1763 22.634H33.8311V17.9102C33.8311 15.7677 34.4258 14.3078 37.4981 14.3078H41.3916V7.69199C40.7142 7.60189 38.39 7.40039 35.6857 7.40039C30.0392 7.40039 26.1748 10.8457 26.1748 17.1756V22.634H19.8105V30.051H26.1748V49.0002H33.8311Z" fill="white"/>
</g>
<defs>
<clipPath id="clip0">
<rect width="49" height="49" fill="white"/>
</clipPath>
</defs>
</svg>
