<svg width="338" height="225" viewBox="0 0 338 225" fill="none" xmlns="http://www.w3.org/2000/svg">
<path d="M30.1316 97.3935C30.1316 97.3935 26.3685 97.119 26.7155 105.552C27.0625 113.985 27.9413 118.476 27.9413 118.476C27.9413 118.476 27.8287 120.343 26.382 119.979C24.9354 119.614 22.1998 117.792 20.8569 119.151C19.5139 120.51 19.9555 122.724 21.8078 125.275C23.66 127.827 27.4907 133.555 27.8467 134.073C28.2027 134.59 28.3199 135.54 27.2924 135.45C26.2649 135.36 19.3291 133.006 18.4097 136.35C17.4904 139.693 23.8177 145.953 24.5027 146.651C25.1878 147.348 25.2148 147.789 24.9534 148.208C24.692 148.626 22.4207 147.622 20.4197 147.033C18.4187 146.443 15.9987 146.133 15.6291 148.095C15.2596 150.057 18.0267 155.885 28.4821 161.973L33.5026 164.475L38.2571 161.447C48.0411 154.345 50.2358 148.302 49.6725 146.371C49.1091 144.441 46.7296 145.021 44.7963 145.791C42.8629 146.561 40.7177 147.807 40.4023 147.415C40.0868 147.024 40.0778 146.583 40.6862 145.818C41.2946 145.053 46.964 138.204 45.7156 134.959C44.4673 131.715 37.7974 134.743 36.7834 134.937C35.7694 135.13 35.81 134.167 36.0984 133.627C36.3868 133.087 39.6497 126.985 41.2405 124.267C42.8314 121.549 43.1063 119.344 41.574 118.08C40.0417 116.815 37.5676 118.944 36.166 119.452C34.7644 119.961 34.4625 118.102 34.4625 118.102C34.4625 118.102 34.8681 113.548 34.3678 105.124C33.8676 96.7005 30.0595 97.38 30.0595 97.38" fill="#EBEBEB"/>
<path d="M30.429 104.944C30.429 104.944 30.429 105.003 30.429 105.12C30.429 105.237 30.4516 105.417 30.4651 105.637C30.4966 106.087 30.5462 106.771 30.6003 107.626C30.7174 109.359 30.8662 111.861 31.0509 114.952C31.3934 121.14 31.799 129.694 32.2092 139.14C32.6193 148.585 33.0068 157.14 33.3133 163.332C33.471 166.419 33.5972 168.921 33.6873 170.662C33.7324 171.522 33.764 172.188 33.7865 172.656C33.7865 172.876 33.7865 173.047 33.809 173.173C33.812 173.232 33.812 173.291 33.809 173.349C33.809 173.349 33.809 173.29 33.7865 173.173C33.764 173.056 33.7865 172.876 33.7504 172.656C33.7189 172.206 33.6693 171.522 33.6152 170.667C33.4981 168.939 33.3493 166.432 33.1646 163.341C32.8221 157.153 32.4165 148.599 32.0064 139.149C31.5962 129.699 31.2087 121.149 30.9022 114.961C30.7445 111.874 30.6183 109.372 30.5282 107.631C30.4831 106.771 30.4516 106.105 30.429 105.637C30.429 105.417 30.429 105.246 30.429 105.12C30.426 105.062 30.426 105.003 30.429 104.944Z" fill="#E0E0E0"/>
<path d="M24.5478 121.851C24.6644 121.921 24.7706 122.008 24.8633 122.107C25.0571 122.283 25.3139 122.557 25.661 122.872C26.3234 123.529 27.2158 124.461 28.1802 125.505L30.6363 128.205L31.3844 129.015C31.4825 129.109 31.5701 129.213 31.6458 129.326C31.5302 129.254 31.4242 129.168 31.3303 129.069C31.1366 128.894 30.8797 128.619 30.5372 128.299C29.8792 127.638 29.0004 126.698 28.036 125.654L25.5618 122.985L24.8092 122.179C24.7101 122.08 24.6224 121.97 24.5478 121.851Z" fill="#E0E0E0"/>
<path d="M32.1461 129.15C32.1055 129.11 33.9487 127.188 36.2471 124.857C38.5455 122.526 40.4518 120.663 40.4879 120.699C40.524 120.735 38.6852 122.661 36.3823 124.992C34.0794 127.323 32.1821 129.182 32.1461 129.15Z" fill="#E0E0E0"/>
<path d="M32.1235 143.681C32.2306 143.592 32.3488 143.518 32.475 143.46L33.4575 142.907C34.2867 142.457 35.4269 141.795 36.6617 141.039C37.8966 140.283 38.9962 139.558 39.7894 139.032L40.7267 138.406C40.8374 138.323 40.9568 138.252 41.0828 138.195C41.0828 138.195 40.9791 138.303 40.7718 138.469C40.5645 138.636 40.2535 138.865 39.8705 139.144C39.0998 139.702 38.0092 140.445 36.7699 141.201C35.5306 141.957 34.3723 142.592 33.5251 143.028C33.1015 143.244 32.7545 143.415 32.5111 143.523C32.3893 143.592 32.259 143.645 32.1235 143.681Z" fill="#E0E0E0"/>
<path d="M23.7997 138.6C23.9231 138.636 24.0401 138.69 24.1467 138.762C24.363 138.874 24.6785 139.05 25.0481 139.266C25.8142 139.716 26.8507 140.31 28.0179 140.994C29.1852 141.678 30.2082 142.313 30.9563 142.794C31.3304 143.024 31.6323 143.212 31.8576 143.352C31.9704 143.414 32.0749 143.489 32.1686 143.577C32.0456 143.54 31.9287 143.486 31.8216 143.415L30.9202 142.911C30.1541 142.461 29.1176 141.863 27.9504 141.179C26.7831 140.495 25.7601 139.865 25.012 139.401C24.6379 139.167 24.336 138.978 24.1107 138.843C23.998 138.774 23.8937 138.693 23.7997 138.6Z" fill="#E0E0E0"/>
<path d="M22.1503 151.425C22.3079 151.479 22.459 151.55 22.6009 151.636L23.7682 152.284C24.7506 152.833 26.1026 153.607 27.5898 154.471C29.077 155.335 30.42 156.123 31.3844 156.721L32.5246 157.414C32.667 157.494 32.8013 157.588 32.9257 157.693C32.7681 157.64 32.617 157.569 32.475 157.482L31.3078 156.838C30.3254 156.285 28.9734 155.516 27.4862 154.652C25.999 153.787 24.656 152.995 23.6916 152.401L22.5333 151.704C22.396 151.625 22.2676 151.531 22.1503 151.425Z" fill="#E0E0E0"/>
<path d="M32.7004 157.46C32.8408 157.348 32.9918 157.25 33.151 157.167L34.3723 156.424C35.4044 155.799 36.824 154.926 38.3652 153.923C39.9065 152.919 41.2856 151.979 42.2725 151.29L43.4488 150.476C43.5896 150.367 43.7405 150.272 43.8994 150.192C43.775 150.316 43.6408 150.431 43.4983 150.534C43.2324 150.746 42.8449 151.038 42.3582 151.398C41.3892 152.118 40.0237 153.081 38.4779 154.098C36.9321 155.115 35.499 155.957 34.449 156.555C33.9217 156.852 33.4935 157.09 33.1961 157.243C33.0387 157.332 32.8725 157.405 32.7004 157.46Z" fill="#E0E0E0"/>
<path d="M40.2535 166.117H26.355L30.8887 200.408H35.7153L40.2535 166.117Z" fill="#E0E0E0"/>
<path d="M27.0761 170.334C27.0761 170.334 27.0761 170.379 27.1482 170.456C27.2408 170.56 27.3565 170.642 27.4862 170.694C27.7279 170.777 27.9855 170.804 28.2393 170.773C28.4931 170.742 28.7365 170.653 28.9508 170.514C29.5142 170.204 30.0009 169.614 30.7535 169.331C31.5884 169.062 32.4894 169.079 33.3133 169.38C34.1512 169.672 34.9503 170.065 35.6928 170.55C36.3134 170.938 36.9593 171.283 37.6262 171.585C38.0809 171.788 38.5617 171.928 39.0548 171.999C39.1878 172.016 39.3217 172.026 39.4559 172.026C39.5505 172.026 39.6001 172.026 39.6001 172.026C38.9409 171.926 38.2992 171.733 37.6938 171.454C37.042 171.135 36.41 170.778 35.801 170.384C35.0481 169.884 34.233 169.484 33.3764 169.196C32.5046 168.88 31.5513 168.869 30.6724 169.164C30.3007 169.314 29.9576 169.527 29.6584 169.794C29.4063 170.015 29.1398 170.22 28.8607 170.406C28.6658 170.541 28.4442 170.632 28.2108 170.673C27.9775 170.714 27.738 170.704 27.5087 170.644C27.3473 170.567 27.2008 170.462 27.0761 170.334Z" fill="#F5F5F5"/>
<path d="M27.5808 176.647C27.5808 176.647 27.6935 176.508 27.9098 176.279C28.2247 175.968 28.6028 175.729 29.0184 175.577C29.6375 175.353 30.2944 175.254 30.9518 175.284C31.7642 175.346 32.5723 175.456 33.3719 175.613C34.1864 175.773 35.0209 175.808 35.846 175.716C36.5207 175.631 37.1785 175.444 37.7974 175.163C38.2128 174.974 38.6058 174.74 38.9692 174.465C39.1094 174.375 39.2342 174.262 39.3387 174.132C38.8267 174.471 38.2905 174.772 37.7343 175.032C37.1239 175.286 36.4806 175.453 35.8235 175.527C35.0169 175.605 34.2032 175.565 33.4079 175.41C32.6005 175.249 31.7828 175.144 30.9608 175.095C30.2765 175.07 29.5946 175.19 28.9598 175.446C28.5304 175.617 28.1486 175.889 27.8467 176.238C27.7657 176.332 27.6947 176.435 27.6349 176.544C27.6117 176.576 27.5935 176.61 27.5808 176.647Z" fill="#F5F5F5"/>
<path d="M38.6807 180.027C38.5645 179.941 38.4351 179.874 38.2977 179.829C37.9271 179.691 37.5385 179.608 37.1439 179.581C36.5622 179.549 35.9786 179.582 35.4044 179.68C34.7554 179.788 34.0524 179.964 33.3313 180.13C32.652 180.29 31.9561 180.368 31.2582 180.364C30.694 180.35 30.1375 180.229 29.6178 180.009C29.1495 179.784 28.7323 179.465 28.392 179.073C28.4443 179.208 28.5241 179.331 28.6263 179.433C28.8888 179.733 29.2111 179.975 29.5727 180.144C30.1058 180.394 30.6833 180.536 31.2718 180.562C31.9874 180.581 32.7024 180.507 33.3989 180.342C34.138 180.184 34.8275 180 35.4585 179.892C36.018 179.783 36.5876 179.735 37.1575 179.748C37.6746 179.78 38.186 179.873 38.6807 180.027Z" fill="#F5F5F5"/>
<path d="M28.8111 184.783C29.2366 184.599 29.7094 184.551 30.1631 184.648C30.6533 184.77 31.1281 184.946 31.5782 185.175C32.1536 185.449 32.773 185.62 33.4079 185.679C34.5702 185.781 35.7348 185.511 36.7338 184.909C37.0322 184.728 37.3102 184.516 37.5631 184.275C37.7298 184.095 37.8154 183.991 37.8064 183.978C37.4377 184.264 37.0525 184.529 36.6527 184.77C35.6693 185.309 34.5485 185.547 33.4304 185.454C32.11 185.4 31.096 184.594 30.1947 184.5C29.8443 184.438 29.4838 184.469 29.1491 184.59C28.9013 184.671 28.8021 184.774 28.8111 184.783Z" fill="#F5F5F5"/>
<path d="M29.5863 191.367C29.9849 191.375 30.3804 191.295 30.7445 191.133C31.443 190.903 32.3083 190.368 33.3178 189.967C33.7878 189.776 34.2886 189.671 34.796 189.657C35.2062 189.659 35.6109 189.751 35.9812 189.927C36.3188 190.109 36.6126 190.362 36.842 190.669C36.8229 190.562 36.7763 190.461 36.7068 190.377C36.5388 190.132 36.3148 189.93 36.0533 189.787C35.6667 189.574 35.2334 189.458 34.7915 189.45C34.2567 189.45 33.727 189.553 33.2322 189.756C32.1866 190.17 31.3484 190.724 30.6814 190.985C30.0144 191.246 29.5818 191.331 29.5863 191.367Z" fill="#F5F5F5"/>
<path d="M30.2668 194.427C30.5515 194.566 30.8553 194.661 31.1681 194.71C31.8913 194.887 32.6263 195.012 33.3674 195.084C34.116 195.159 34.869 195.18 35.6207 195.147C35.9246 195.152 36.2278 195.115 36.522 195.039C36.522 194.972 35.1159 195.039 33.3944 194.859C31.6729 194.679 30.2848 194.36 30.2668 194.427Z" fill="#F5F5F5"/>
<path d="M311.942 24.381L286.358 15.21L261.017 24.2595C257.781 25.785 254.947 26.6985 254.947 29.7V44.6895C254.902 55.2096 257.792 65.5343 263.293 74.5065C268.785 83.5772 276.927 90.7509 286.624 95.0625C296.989 91.7055 304.714 82.746 309.437 75.087C314.942 66.1179 317.834 55.7939 317.788 45.2745V31.8015C317.77 27.5085 315.489 25.416 311.942 24.381Z" fill="#F5F5F5"/>
<path d="M286.624 86.3685C277.71 82.404 271.919 76.0185 268.178 69.9705C263.825 62.8727 261.539 54.7043 261.576 46.3815V35.874C261.576 33.4935 263.014 31.2615 265.871 29.9295L286.381 22.2795V15.21L261.017 24.2595C258.358 25.4205 254.947 26.6985 254.947 29.709V44.6895C254.902 55.2096 257.792 65.5343 263.293 74.5065C268.785 83.5772 276.927 90.7509 286.624 95.0625V86.3685Z" fill="#EBEBEB"/>
<path d="M286.624 95.0625C288.359 94.4955 290.041 93.7756 291.649 92.9115C295.596 90.6749 299.182 87.8578 302.289 84.555C305.108 81.5225 307.589 78.1941 309.689 74.628C315.269 65.5965 318.088 55.1354 317.801 44.5275V32.157C317.801 25.9965 314.646 25.542 311.942 24.381L286.358 15.21V22.275L307.089 30.0555C309.946 31.4055 311.384 33.615 311.384 35.9955V46.503C311.419 54.8262 309.131 62.9947 304.777 70.092C301.045 76.1535 295.52 82.404 286.624 86.3685V95.0625Z" fill="#E0E0E0"/>
<path d="M293.145 45.7065L293.172 43.686C293.172 41.9268 292.472 40.2397 291.227 38.9957C289.981 37.7518 288.291 37.053 286.529 37.053C284.768 37.053 283.078 37.7518 281.832 38.9957C280.586 40.2397 279.887 41.9268 279.887 43.686L279.859 45.7425C278.982 45.8768 278.181 46.3205 277.602 46.9932C277.024 47.6659 276.705 48.5232 276.705 49.41V61.335C276.705 62.3196 277.097 63.2639 277.794 63.9601C278.491 64.6563 279.437 65.0475 280.423 65.0475H292.825C293.811 65.0475 294.757 64.6563 295.454 63.9601C296.151 63.2639 296.543 62.3196 296.543 61.335V49.41C296.544 48.4799 296.196 47.5832 295.567 46.8973C294.937 46.2115 294.073 45.7865 293.145 45.7065ZM288.3 58.3605H285.06L285.565 56.0205C285.204 55.7954 284.925 55.4596 284.77 55.0633C284.616 54.667 284.594 54.2314 284.708 53.8216C284.821 53.4117 285.065 53.0496 285.402 52.7894C285.739 52.5291 286.151 52.3846 286.577 52.3775C287.002 52.3703 287.419 52.5009 287.765 52.7497C288.11 52.9985 288.366 53.3523 288.493 53.758C288.621 54.1638 288.613 54.5999 288.472 55.0012C288.331 55.4024 288.064 55.7474 287.71 55.9845L288.3 58.3605ZM291.712 45.6885H281.293L281.32 43.686C281.36 42.3322 281.926 41.0472 282.899 40.1038C283.872 39.1603 285.175 38.6325 286.532 38.6325C287.888 38.6325 289.191 39.1603 290.164 40.1038C291.137 41.0472 291.704 42.3322 291.744 43.686L291.712 45.6885Z" fill="#E0E0E0"/>
<path d="M265.704 45.5625C265.488 44.8901 265.36 44.193 265.321 43.488C265.131 41.7986 265.062 40.0978 265.114 38.3985C265.141 37.404 265.208 36.459 265.298 35.5995C265.339 34.8191 265.533 34.0545 265.871 33.3495C266.118 32.8684 266.509 32.4755 266.988 32.2245C267.335 32.0625 267.552 32.0715 267.556 32.094C266.939 32.3811 266.442 32.8745 266.15 33.489C265.872 34.1765 265.72 34.9079 265.7 35.649C265.632 36.4995 265.578 37.449 265.551 38.421C265.492 40.392 265.551 42.1785 265.627 43.47C265.704 44.7615 265.772 45.5535 265.704 45.5625Z" fill="white"/>
<path d="M266.083 52.083C265.956 52.083 265.844 51.471 265.83 50.706C265.817 49.941 265.902 49.3245 266.024 49.3245C266.146 49.3245 266.263 49.9365 266.276 50.6745C266.29 51.4125 266.204 52.0785 266.083 52.083Z" fill="white"/>
<path d="M268.597 27.927H73.008C71.3916 27.9306 69.8425 28.5739 68.7004 29.7161C67.5582 30.8582 66.9162 32.406 66.915 34.02V171.94C66.915 173.555 67.5565 175.104 68.6988 176.247C69.841 177.39 71.3908 178.034 73.008 178.038H148.076C148.076 178.038 152.848 192.78 138.048 200.408H208.231C208.231 200.408 191.533 194.688 195.815 178.038H268.597C270.216 178.037 271.768 177.394 272.912 176.25C274.057 175.107 274.699 173.557 274.699 171.94V34.02C274.699 32.404 274.057 30.8543 272.912 29.7116C271.768 28.5689 270.216 27.927 268.597 27.927Z" fill="#455A64"/>
<path d="M173.412 163.53C176.071 167.328 171.907 171.486 168.103 168.831C167.977 168.741 167.867 168.63 167.779 168.503C165.124 164.709 169.284 160.556 173.083 163.206C173.21 163.295 173.321 163.405 173.412 163.53Z" fill="#263238"/>
<path d="M74.6529 30.4515H266.943C268.103 30.4515 269.215 30.9114 270.035 31.73C270.854 32.5486 271.315 33.6588 271.315 34.8165V152.807H70.304V34.8165C70.304 33.6627 70.7615 32.5559 71.5764 31.7379C72.3913 30.92 73.4975 30.4575 74.6529 30.4515Z" fill="white"/>
<path d="M74.4096 30.4515H267.926C268.822 30.4551 269.681 30.8132 270.313 31.4474C270.946 32.0817 271.301 32.9404 271.301 33.8355V40.617H70.304V34.569C70.304 33.4801 70.736 32.4355 71.5054 31.6638C72.2748 30.8922 73.3191 30.4563 74.4096 30.4515Z" fill="#EBEBEB"/>
<path d="M76.6854 37.1565C77.4645 37.1565 78.096 36.5259 78.096 35.748C78.096 34.9701 77.4645 34.3395 76.6854 34.3395C75.9064 34.3395 75.2748 34.9701 75.2748 35.748C75.2748 36.5259 75.9064 37.1565 76.6854 37.1565Z" fill="#E0E0E0"/>
<path d="M80.8947 37.1565C81.6737 37.1565 82.3053 36.5259 82.3053 35.748C82.3053 34.9701 81.6737 34.3395 80.8947 34.3395C80.1156 34.3395 79.4841 34.9701 79.4841 35.748C79.4841 36.5259 80.1156 37.1565 80.8947 37.1565Z" fill="#E0E0E0"/>
<path d="M84.8966 37.1565C85.6756 37.1565 86.3072 36.5259 86.3072 35.748C86.3072 34.9701 85.6756 34.3395 84.8966 34.3395C84.1175 34.3395 83.486 34.9701 83.486 35.748C83.486 36.5259 84.1175 37.1565 84.8966 37.1565Z" fill="#E0E0E0"/>
<path d="M233.617 178.056C233.617 178.124 205.788 178.173 171.47 178.173C137.151 178.173 109.314 178.124 109.314 178.056C109.314 177.989 137.138 177.939 171.47 177.939C205.801 177.939 233.617 177.993 233.617 178.056Z" fill="#263238"/>
<path d="M201.849 57.834L171.204 46.5615L140.851 57.6855C136.976 59.5575 133.578 60.6825 133.578 64.377V82.8C133.514 95.6935 136.972 108.36 143.578 119.439C149.238 128.848 157.999 138.537 171.519 144.697C183.926 140.571 193.187 129.568 198.848 120.154C205.454 109.078 208.912 96.4122 208.848 83.52V66.951C208.825 61.677 206.099 59.103 201.849 57.834Z" fill="#FFC100"/>
<g opacity="0.8">
<path opacity="0.8" d="M201.849 57.834L171.204 46.5615L140.851 57.6855C136.976 59.5575 133.578 60.6825 133.578 64.377V82.8C133.514 95.6935 136.972 108.36 143.578 119.439C149.238 128.848 157.999 138.537 171.519 144.697C183.926 140.571 193.187 129.568 198.848 120.154C205.454 109.078 208.912 96.4122 208.848 83.52V66.951C208.825 61.677 206.099 59.103 201.849 57.834Z" fill="white"/>
</g>
<path d="M189.915 104.436H184.282V73.836C184.282 70.3707 182.904 67.0474 180.45 64.5971C177.996 62.1468 174.667 60.7702 171.197 60.7702C167.727 60.7702 164.398 62.1468 161.944 64.5971C159.49 67.0474 158.112 70.3707 158.112 73.836V104.436H152.479V73.836C152.44 71.3571 152.896 68.8953 153.819 66.5939C154.743 64.2925 156.115 62.1976 157.857 60.431C159.599 58.6643 161.676 57.2614 163.966 56.3038C166.256 55.3461 168.714 54.853 171.197 54.853C173.68 54.853 176.138 55.3461 178.428 56.3038C180.718 57.2614 182.795 58.6643 184.537 60.431C186.279 62.1976 187.651 64.2925 188.575 66.5939C189.498 68.8953 189.954 71.3571 189.915 73.836V104.436Z" fill="#FFC100"/>
<g opacity="0.4">
<path opacity="0.4" d="M189.915 104.436H184.282V73.836C184.282 70.3707 182.904 67.0474 180.45 64.5971C177.996 62.1468 174.667 60.7702 171.197 60.7702C167.727 60.7702 164.398 62.1468 161.944 64.5971C159.49 67.0474 158.112 70.3707 158.112 73.836V104.436H152.479V73.836C152.44 71.3571 152.896 68.8953 153.819 66.5939C154.743 64.2925 156.115 62.1976 157.857 60.431C159.599 58.6643 161.676 57.2614 163.966 56.3038C166.256 55.3461 168.714 54.853 171.197 54.853C173.68 54.853 176.138 55.3461 178.428 56.3038C180.718 57.2614 182.795 58.6643 184.537 60.431C186.279 62.1976 187.651 64.2925 188.575 66.5939C189.498 68.8953 189.954 71.3571 189.915 73.836V104.436Z" fill="black"/>
</g>
<path d="M193.805 90.819H148.589C147.143 90.819 145.971 91.9896 145.971 93.4335V120.523C145.971 121.967 147.143 123.138 148.589 123.138H193.805C195.251 123.138 196.423 121.967 196.423 120.523V93.4335C196.423 91.9896 195.251 90.819 193.805 90.819Z" fill="#FFC100"/>
<g opacity="0.5">
<path opacity="0.5" d="M175.413 102.771C175.413 101.987 175.195 101.219 174.782 100.552C174.369 99.8859 173.778 99.3476 173.076 98.9982C172.373 98.6487 171.587 98.5019 170.805 98.5743C170.024 98.6467 169.278 98.9354 168.652 99.4079C168.025 99.8804 167.544 100.518 167.26 101.249C166.977 101.98 166.904 102.775 167.049 103.546C167.194 104.316 167.551 105.031 168.08 105.609C168.61 106.188 169.29 106.607 170.046 106.821V113.121H172.348V106.821C173.232 106.572 174.01 106.042 174.563 105.311C175.116 104.58 175.415 103.688 175.413 102.771Z" fill="black"/>
</g>
<path d="M148.661 120.074C148.544 120.074 148.454 114.674 148.454 108.036C148.454 101.399 148.544 95.9985 148.661 95.9985C148.779 95.9985 148.873 101.399 148.873 108.036C148.873 114.674 148.779 120.074 148.661 120.074Z" fill="#FAFAFA"/>
<path d="M167.896 108.166C167.896 108.166 167.698 108.103 167.4 107.887C166.983 107.576 166.617 107.203 166.314 106.78C165.788 106.087 165.422 105.287 165.242 104.436C165.062 103.585 165.073 102.705 165.274 101.858C165.475 101.012 165.86 100.22 166.403 99.5404C166.946 98.8603 167.633 98.3085 168.414 97.9245C168.882 97.6836 169.383 97.5152 169.901 97.425C170.086 97.3744 170.28 97.3637 170.469 97.3935C170.469 97.4745 169.672 97.551 168.576 98.1855C167.862 98.5801 167.237 99.1197 166.744 99.7694C166.25 100.419 165.898 101.165 165.71 101.959C165.522 102.752 165.502 103.576 165.652 104.378C165.802 105.18 166.118 105.941 166.58 106.614C166.975 107.166 167.416 107.686 167.896 108.166Z" fill="#FAFAFA"/>
<path d="M209.109 137.547C209.109 137.547 209.231 137.376 209.474 137.056L209.677 136.786C209.749 136.683 209.812 136.561 209.884 136.431C210.064 136.139 210.215 135.83 210.335 135.508C210.407 135.324 210.493 135.135 210.565 134.928C210.637 134.721 210.687 134.478 210.75 134.262C210.823 134.02 210.875 133.771 210.903 133.519C210.957 133.249 210.996 132.975 211.02 132.7C211.127 131.383 211.066 130.057 210.84 128.754C210.389 125.797 209.127 122.323 207.208 118.543C204.98 114.282 202.371 110.23 199.411 106.438C195.847 101.821 191.962 97.46 187.784 93.3885C183.011 88.6982 177.912 84.3508 172.524 80.379C169.672 78.291 166.666 76.2615 163.511 74.349C160.286 72.3867 156.938 70.634 153.488 69.102C149.932 67.4797 146.186 66.3081 142.339 65.6145C140.374 65.2659 138.369 65.2158 136.39 65.466C135.4 65.6144 134.434 65.8943 133.519 66.2985C132.597 66.7079 131.773 67.3072 131.099 68.0571C130.426 68.8071 129.919 69.6907 129.612 70.65C129.313 71.604 129.145 72.5939 129.111 73.593C129.084 75.5849 129.359 77.5695 129.927 79.479C131.055 83.218 132.647 86.8009 134.668 90.144C136.585 93.3949 138.711 96.5184 141.032 99.495C143.285 102.42 145.655 105.169 148.058 107.757C152.623 112.652 157.529 117.219 162.74 121.423C167.266 125.103 172.044 128.461 177.04 131.472C181.149 133.976 185.476 136.102 189.97 137.826C193.949 139.302 197.55 140.148 200.542 140.265C201.864 140.345 203.191 140.254 204.49 139.995C204.759 139.941 205.025 139.874 205.288 139.792C205.535 139.731 205.778 139.651 206.013 139.554L206.653 139.293C206.852 139.198 207.032 139.09 207.203 139C207.509 138.838 207.8 138.648 208.073 138.433C208.19 138.343 208.307 138.271 208.402 138.19L208.645 137.956L209.096 137.538L208.668 137.988L208.424 138.231C208.33 138.312 208.217 138.388 208.095 138.483C207.825 138.7 207.535 138.893 207.23 139.059C207.059 139.153 206.879 139.261 206.68 139.36L206.036 139.626C205.801 139.727 205.558 139.808 205.31 139.869C205.047 139.955 204.779 140.027 204.508 140.085C203.204 140.351 201.871 140.449 200.542 140.377C197.536 140.274 193.922 139.432 189.929 137.97C185.422 136.254 181.08 134.132 176.959 131.629C171.947 128.628 167.156 125.273 162.623 121.59C157.399 117.388 152.481 112.821 147.904 107.923C145.493 105.331 143.127 102.577 140.86 99.648C138.532 96.6652 136.399 93.5357 134.474 90.279C132.444 86.9183 130.842 83.3174 129.706 79.56C129.133 77.6237 128.858 75.6117 128.891 73.593C128.923 72.5707 129.096 71.5577 129.404 70.5825C129.717 69.5917 130.237 68.6784 130.929 67.9028C131.621 67.1272 132.47 66.5068 133.42 66.0825C134.354 65.6668 135.342 65.3806 136.354 65.232C138.357 64.9751 140.387 65.0252 142.375 65.3805C146.242 66.0764 150.006 67.2557 153.578 68.8905C157.028 70.4295 160.373 72.1928 163.592 74.169C166.747 76.086 169.775 78.12 172.605 80.2125C177.998 84.198 183.102 88.5588 187.878 93.2625C192.054 97.3431 195.937 101.713 199.497 106.339C202.454 110.146 205.059 114.212 207.28 118.489C209.19 122.283 210.434 125.775 210.885 128.74C211.107 130.051 211.16 131.385 211.043 132.709C211.019 132.986 210.98 133.261 210.926 133.533C210.89 133.786 210.836 134.035 210.763 134.28C210.696 134.514 210.633 134.73 210.574 134.95C210.515 135.171 210.407 135.346 210.335 135.531C210.208 135.854 210.047 136.163 209.857 136.453C209.781 136.584 209.718 136.705 209.646 136.809L209.434 137.074C209.222 137.389 209.109 137.547 209.109 137.547Z" fill="#FFC100"/>
<path d="M223.531 102.776C223.531 102.776 223.508 102.569 223.477 102.168C223.477 102.066 223.468 101.954 223.45 101.831C223.45 101.705 223.395 101.574 223.368 101.426C223.309 101.085 223.219 100.75 223.098 100.427C223.03 100.242 222.967 100.044 222.886 99.8415C222.805 99.639 222.683 99.441 222.575 99.2205C222.462 98.9865 222.329 98.7622 222.179 98.55C222.03 98.334 221.904 98.1 221.728 97.866C220.93 96.8103 220 95.8607 218.961 95.04C216.649 93.141 213.395 91.377 209.447 89.8335C204.943 88.1342 200.294 86.845 195.558 85.9815C189.823 84.9071 184.019 84.238 178.189 83.979C171.499 83.6577 164.794 83.8081 158.125 84.429C154.606 84.762 151.009 85.248 147.373 85.9275C143.658 86.6049 139.99 87.5219 136.394 88.6725C132.655 89.8248 129.074 91.4393 125.736 93.4785C124.049 94.5269 122.53 95.8223 121.229 97.3215C120.588 98.0887 120.054 98.9395 119.643 99.8505C119.229 100.77 119.016 101.767 119.016 102.776C119.016 103.784 119.229 104.781 119.643 105.701C120.056 106.611 120.59 107.461 121.229 108.23C122.531 109.722 124.05 111.01 125.736 112.05C129.072 114.091 132.651 115.707 136.39 116.861C139.986 118.012 143.653 118.929 147.368 119.606C151.005 120.29 154.601 120.771 158.121 121.104C164.79 121.727 171.494 121.878 178.185 121.554C184.014 121.295 189.818 120.626 195.553 119.552C200.29 118.689 204.939 117.4 209.443 115.7C213.395 114.156 216.653 112.392 218.956 110.493C219.996 109.674 220.926 108.724 221.723 107.667C221.886 107.447 222.036 107.219 222.174 106.983C222.319 106.775 222.445 106.555 222.553 106.326L222.864 105.705C222.945 105.503 223.008 105.305 223.075 105.12C223.196 104.796 223.287 104.462 223.346 104.121C223.373 103.977 223.409 103.842 223.427 103.721C223.445 103.599 223.427 103.482 223.454 103.383C223.486 102.978 223.508 102.776 223.508 102.776C223.508 102.776 223.508 102.983 223.477 103.383C223.477 103.487 223.477 103.599 223.477 103.725C223.477 103.851 223.427 103.982 223.4 104.13C223.344 104.472 223.256 104.808 223.139 105.134C223.071 105.323 223.012 105.521 222.927 105.728L222.625 106.353C222.517 106.583 222.39 106.805 222.246 107.015C222.098 107.235 221.971 107.487 221.796 107.712C220.999 108.778 220.067 109.737 219.024 110.565C216.712 112.482 213.454 114.264 209.501 115.821C204.991 117.531 200.335 118.829 195.589 119.7C189.848 120.787 184.036 121.469 178.198 121.739C171.498 122.073 164.783 121.933 158.103 121.32C154.579 120.987 150.978 120.506 147.327 119.826C143.604 119.149 139.928 118.232 136.322 117.081C132.565 115.923 128.968 114.299 125.614 112.248C123.898 111.188 122.352 109.875 121.027 108.356C120.37 107.569 119.824 106.697 119.404 105.764C118.981 104.817 118.762 103.792 118.762 102.755C118.762 101.719 118.981 100.694 119.404 99.747C119.826 98.8156 120.372 97.9453 121.027 97.1595C122.351 95.6386 123.9 94.3276 125.619 93.2715C128.97 91.2203 132.566 89.598 136.322 88.443C139.927 87.2887 143.603 86.3703 147.327 85.6935C150.973 85.014 154.574 84.5325 158.098 84.1995C164.779 83.5879 171.494 83.4495 178.194 83.7855C184.033 84.056 189.847 84.7402 195.589 85.833C200.332 86.7077 204.986 88.0105 209.492 89.7255C213.449 91.287 216.703 93.0645 219.019 94.9815C220.059 95.8126 220.987 96.7729 221.782 97.839C221.945 98.0618 222.095 98.2931 222.233 98.532C222.375 98.7431 222.501 98.9642 222.611 99.1935L222.913 99.8235C222.999 100.026 223.057 100.229 223.125 100.413C223.244 100.74 223.331 101.078 223.386 101.421C223.413 101.565 223.445 101.7 223.463 101.826C223.481 101.952 223.463 102.065 223.463 102.164C223.531 102.569 223.531 102.776 223.531 102.776Z" fill="#FFC100"/>
<path d="M204.404 59.49C204.404 59.49 204.224 59.382 203.891 59.1615L203.607 58.977C203.499 58.914 203.368 58.86 203.237 58.7925C202.931 58.6319 202.612 58.4994 202.282 58.3965C202.092 58.338 201.899 58.2615 201.687 58.203L200.997 58.05C200.75 57.9957 200.498 57.9611 200.245 57.9465C199.979 57.9465 199.708 57.879 199.42 57.888C198.095 57.8724 196.773 58.0235 195.486 58.338C192.57 58.995 189.176 60.4845 185.539 62.658C181.434 65.1692 177.564 68.0475 173.98 71.2575C169.615 75.1245 165.53 79.2944 161.753 83.736C157.396 88.8156 153.404 94.196 149.806 99.837C147.913 102.82 146.093 105.952 144.398 109.242C142.66 112.591 141.139 116.048 139.846 119.592C138.474 123.247 137.566 127.06 137.142 130.941C136.929 132.922 137.019 134.923 137.408 136.877C137.621 137.853 137.967 138.797 138.436 139.68C138.909 140.567 139.565 141.345 140.36 141.961C141.155 142.578 142.072 143.02 143.051 143.257C144.024 143.491 145.025 143.591 146.025 143.554C148.017 143.445 149.98 143.033 151.848 142.335C155.507 140.953 158.978 139.12 162.181 136.877C165.297 134.743 168.27 132.41 171.082 129.892C173.849 127.44 176.436 124.897 178.856 122.323C183.425 117.439 187.642 112.237 191.475 106.758C194.847 102.003 197.878 97.0169 200.547 91.836C202.764 87.5691 204.59 83.111 206.004 78.516C207.203 74.466 207.807 70.8075 207.712 67.8195C207.701 66.4967 207.519 65.1809 207.171 63.9045C207.099 63.6389 207.011 63.3776 206.91 63.1215C206.834 62.8803 206.739 62.6456 206.626 62.4195C206.518 62.2035 206.419 61.9695 206.324 61.7985C206.23 61.6275 206.094 61.434 205.991 61.272C205.808 60.9771 205.598 60.6999 205.364 60.444C205.27 60.3315 205.184 60.2235 205.098 60.1335L204.846 59.904C204.549 59.634 204.395 59.49 204.395 59.49L204.846 59.886L205.098 60.111C205.189 60.201 205.274 60.309 205.373 60.4215C205.613 60.6734 205.826 60.9493 206.009 61.245C206.117 61.4115 206.239 61.5825 206.351 61.7715L206.658 62.3925C206.777 62.6192 206.876 62.8556 206.955 63.099C207.036 63.351 207.158 63.603 207.221 63.8865C207.577 65.1666 207.768 66.4867 207.789 67.815C207.893 70.8165 207.302 74.475 206.112 78.552C204.71 83.1607 202.891 87.6326 200.677 91.9125C198.019 97.1094 194.997 102.112 191.632 106.884C187.8 112.375 183.583 117.589 179.014 122.485C176.589 125.068 174.002 127.615 171.231 130.077C168.412 132.602 165.431 134.941 162.308 137.079C159.097 139.334 155.614 141.177 151.942 142.564C150.042 143.278 148.043 143.696 146.016 143.802C144.993 143.837 143.97 143.734 142.974 143.496C141.965 143.251 141.018 142.795 140.198 142.159C139.377 141.523 138.699 140.721 138.21 139.806C137.731 138.903 137.378 137.938 137.16 136.939C136.767 134.964 136.676 132.94 136.89 130.936C137.321 127.035 138.24 123.202 139.626 119.529C140.924 115.984 142.451 112.527 144.195 109.179C145.89 105.885 147.715 102.748 149.603 99.7605C153.211 94.1151 157.214 88.7316 161.582 83.6505C165.372 79.2079 169.471 75.038 173.849 71.172C177.455 67.9497 181.348 65.0637 185.481 62.55C189.14 60.381 192.543 58.9005 195.477 58.2525C196.769 57.9321 198.098 57.7808 199.429 57.8025C199.706 57.809 199.983 57.83 200.258 57.8655C200.513 57.8816 200.766 57.9177 201.015 57.9735L201.7 58.1175C201.912 58.1805 202.106 58.2525 202.295 58.3155C202.626 58.4208 202.946 58.5579 203.251 58.725C203.386 58.7925 203.512 58.851 203.62 58.914L203.9 59.103C204.238 59.3685 204.404 59.49 204.404 59.49Z" fill="#FFC100"/>
<path d="M116.934 127.647C118.007 127.647 118.877 126.779 118.877 125.708C118.877 124.636 118.007 123.768 116.934 123.768C115.862 123.768 114.992 124.636 114.992 125.708C114.992 126.779 115.862 127.647 116.934 127.647Z" fill="#FFC100"/>
<path d="M227.938 64.215C227.937 64.5984 227.823 64.9729 227.609 65.2913C227.395 65.6096 227.091 65.8575 226.736 66.0036C226.381 66.1498 225.991 66.1875 225.614 66.1122C225.238 66.0368 224.892 65.8518 224.621 65.5803C224.35 65.3089 224.165 64.9633 224.09 64.5872C224.016 64.2111 224.055 63.8214 224.202 63.4672C224.349 63.1131 224.598 62.8105 224.917 62.5976C225.236 62.3846 225.612 62.271 225.996 62.271C226.251 62.271 226.504 62.3213 226.74 62.4191C226.976 62.5168 227.19 62.6601 227.371 62.8407C227.551 63.0212 227.694 63.2356 227.792 63.4714C227.889 63.7072 227.939 63.9599 227.938 64.215Z" fill="#FFC100"/>
<path d="M130.576 130.716C130.576 130.814 130.547 130.91 130.492 130.991C130.438 131.073 130.36 131.136 130.269 131.174C130.178 131.211 130.078 131.221 129.982 131.201C129.886 131.182 129.797 131.134 129.728 131.064C129.659 130.995 129.612 130.906 129.594 130.81C129.575 130.713 129.586 130.614 129.624 130.523C129.662 130.433 129.726 130.356 129.808 130.302C129.89 130.248 129.987 130.22 130.085 130.221C130.216 130.222 130.341 130.275 130.433 130.368C130.525 130.46 130.576 130.586 130.576 130.716Z" fill="#FFC100"/>
<path d="M141.117 76.347C141.117 76.4449 141.088 76.5406 141.034 76.622C140.979 76.7034 140.902 76.7668 140.811 76.8043C140.721 76.8418 140.621 76.8516 140.525 76.8325C140.429 76.8134 140.34 76.7662 140.271 76.697C140.202 76.6278 140.154 76.5396 140.135 76.4436C140.116 76.3475 140.126 76.248 140.164 76.1576C140.201 76.0671 140.265 75.9898 140.346 75.9354C140.428 75.881 140.523 75.852 140.622 75.852C140.753 75.852 140.879 75.9041 140.972 75.997C141.065 76.0898 141.117 76.2157 141.117 76.347Z" fill="#FFC100"/>
<path d="M218.177 102.775C218.177 102.874 218.148 102.969 218.093 103.051C218.038 103.132 217.961 103.196 217.87 103.233C217.779 103.271 217.679 103.28 217.583 103.261C217.486 103.241 217.398 103.194 217.329 103.124C217.26 103.054 217.213 102.966 217.194 102.869C217.176 102.773 217.186 102.673 217.224 102.583C217.263 102.493 217.327 102.416 217.409 102.362C217.491 102.308 217.587 102.28 217.686 102.28C217.75 102.28 217.815 102.293 217.875 102.318C217.934 102.343 217.989 102.38 218.034 102.426C218.08 102.472 218.116 102.526 218.141 102.586C218.165 102.646 218.177 102.711 218.177 102.775Z" fill="#FFC100"/>
<path d="M225.04 79.785C225.041 79.8833 225.013 79.9796 224.959 80.0617C224.905 80.1438 224.827 80.2079 224.736 80.246C224.646 80.284 224.546 80.2942 224.449 80.2752C224.352 80.2562 224.264 80.209 224.194 80.1395C224.125 80.07 224.077 79.9814 224.058 79.885C224.039 79.7885 224.049 79.6886 224.088 79.598C224.126 79.5074 224.19 79.4301 224.272 79.376C224.354 79.322 224.451 79.2936 224.549 79.2945C224.679 79.2945 224.804 79.3462 224.897 79.4382C224.989 79.5302 225.04 79.6549 225.04 79.785Z" fill="#FFC100"/>
</svg>
