<svg width="34" height="34" viewBox="0 0 34 34" fill="none" xmlns="http://www.w3.org/2000/svg">
<path d="M33.3328 16.1577L30.9509 13.7779L17.8437 0.682092C17.3784 0.217298 16.6241 0.217298 16.1589 0.682092L3.0516 13.7779L0.668489 16.159C0.211319 16.6319 0.224375 17.3856 0.697743 17.8424C1.15952 18.288 1.89157 18.288 2.35334 17.8424L2.70125 17.4923V32.4763C2.70125 33.1338 3.23473 33.6668 3.89284 33.6668H30.1073C30.7654 33.6668 31.2989 33.1338 31.2989 32.4763V17.4923L31.648 17.8412C32.1213 18.2979 32.8757 18.2848 33.3328 17.8119C33.7788 17.3506 33.7788 16.6191 33.3328 16.1577ZM20.5748 31.2858H13.4254V21.7615H20.5748V31.2858ZM28.9157 31.2858H22.9579V20.5711C22.9579 19.9135 22.4244 19.3805 21.7663 19.3805H12.2338C11.5757 19.3805 11.0422 19.9135 11.0422 20.5711V31.2858H5.08442V15.1113L17 3.20599L28.9157 15.1113V31.2858Z" fill="#3E3C3C"/>
</svg>
