<svg width="60" height="50" viewBox="0 0 60 50" fill="none" xmlns="http://www.w3.org/2000/svg">
<path d="M14 15.5C14 24.0605 21.3872 31 30.5 31C39.6128 31 47 24.0605 47 15.5C47 6.93946 39.6128 0 30.5 0C21.3916 0.00939451 14.0106 6.94363 14 15.5ZM30.5 2.13779C38.3561 2.13779 44.7243 8.12004 44.7243 15.5C44.7243 22.88 38.3561 28.8622 30.5 28.8622C22.6439 28.8622 16.2757 22.88 16.2757 15.5C16.2846 8.1237 22.6478 2.14614 30.5 2.13779Z" fill="white"/>
<path d="M52.4034 32.3457L43.6528 36.3826C42.4446 34.1884 40.127 32.792 37.5765 32.7217L29.4984 32.5049C28.2193 32.4692 26.9642 32.1529 25.8269 31.5793L25.0049 31.1634C20.7962 29.0214 15.7797 29.0267 11.5754 31.1772L11.6267 29.359C11.6436 28.7567 11.1576 28.255 10.5407 28.2385L1.6826 28.0004C1.06569 27.9839 0.552423 28.4584 0.535514 29.0608L0.00042817 48.0407C-0.0164807 48.643 0.469515 49.1447 1.08642 49.1612L9.94452 49.3993H9.97507C10.5805 49.3993 11.0758 48.929 11.0921 48.3384L11.1178 47.4303L13.419 46.2272C14.3223 45.7527 15.3783 45.6398 16.365 45.9125L30.1071 49.6783C30.1311 49.6852 30.1551 49.6906 30.1796 49.6959C31.1729 49.8988 32.1852 50.0005 33.1998 50C35.3488 50.0011 37.4728 49.5489 39.4261 48.6734C39.4741 48.6521 39.5204 48.627 39.5646 48.5988L59.4894 36.0151C59.9857 35.7014 60.1461 35.065 59.8554 34.5623C58.3761 31.9995 55.0952 31.0233 52.4034 32.3457ZM2.26459 47.0107L2.73804 30.2111L9.36253 30.389L8.88908 47.1891L2.26459 47.0107ZM38.4197 46.7252C35.993 47.7946 33.2827 48.0897 30.6743 47.5693L16.9694 43.8131C15.4268 43.3876 13.7758 43.5638 12.3647 44.3046L11.1887 44.9198L11.5034 33.7501C15.2299 31.3301 20.0092 31.0814 23.9779 33.1003L24.7998 33.5163C26.2366 34.2406 27.8211 34.64 29.4373 34.6858L37.5159 34.9026C39.785 34.9665 41.7121 36.544 42.1724 38.7147L30.1393 38.3904C29.5224 38.3739 29.0091 38.849 28.9916 39.4508C28.9747 40.0531 29.4613 40.5548 30.0776 40.5713L43.3571 40.9281H43.3882C43.9931 40.9276 44.4879 40.4573 44.5042 39.8672C44.5179 39.3932 44.4819 38.9187 44.3962 38.4522L53.3716 34.3114C53.3803 34.3077 53.389 34.3034 53.3978 34.2992C54.6709 33.6702 56.2101 33.8806 57.2574 34.827L38.4197 46.7252Z" fill="white"/>
<path d="M27.002 15.7129H25.3496V19H23.8672V10.4688H26.8672C27.8516 10.4688 28.6113 10.6895 29.1465 11.1309C29.6816 11.5723 29.9492 12.2109 29.9492 13.0469C29.9492 13.6172 29.8105 14.0957 29.5332 14.4824C29.2598 14.8652 28.877 15.1602 28.3848 15.3672L30.3008 18.9238V19H28.7129L27.002 15.7129ZM25.3496 14.5234H26.873C27.373 14.5234 27.7637 14.3984 28.0449 14.1484C28.3262 13.8945 28.4668 13.5488 28.4668 13.1113C28.4668 12.6543 28.3359 12.3008 28.0742 12.0508C27.8164 11.8008 27.4297 11.6719 26.9141 11.6641H25.3496V14.5234ZM36.7695 15.8945C36.7695 16.875 36.5469 17.6582 36.1016 18.2441C35.6562 18.8262 35.0586 19.1172 34.3086 19.1172C33.6133 19.1172 33.0566 18.8887 32.6387 18.4316V21.4375H31.2148V12.6602H32.5273L32.5859 13.3047C33.0039 12.7969 33.5723 12.543 34.291 12.543C35.0645 12.543 35.6699 12.832 36.1074 13.4102C36.5488 13.9844 36.7695 14.7832 36.7695 15.8066V15.8945ZM35.3516 15.7715C35.3516 15.1387 35.2246 14.6367 34.9707 14.2656C34.7207 13.8945 34.3613 13.709 33.8926 13.709C33.3105 13.709 32.8926 13.9492 32.6387 14.4297V17.2422C32.8965 17.7344 33.3184 17.9805 33.9043 17.9805C34.3574 17.9805 34.7109 17.7988 34.9648 17.4355C35.2227 17.0684 35.3516 16.5137 35.3516 15.7715Z" fill="white"/>
</svg>
