<svg width="48" height="49" viewBox="0 0 48 49" fill="none" xmlns="http://www.w3.org/2000/svg">
<g clip-path="url(#clip0)">
<path d="M3.0004 3.33427C-0.771601 7.3339 0.000398502 11.5826 0.000398502 24.49C0.000398502 35.2088 -1.8316 45.9541 7.7564 48.4837C10.7504 49.2697 37.2784 49.2697 40.2684 48.4796C44.2604 47.4282 47.5084 44.1227 47.9524 38.3591C48.0144 37.5547 48.0144 11.4397 47.9504 10.6189C47.4784 4.47965 43.7764 0.941436 38.8984 0.22481C37.7804 0.0594354 37.5564 0.0104353 31.8204 0.000226989C11.4744 0.0104353 7.0144 -0.91444 3.0004 3.33427Z" fill="url(#paint0_linear)"/>
<path d="M23.9956 6.40906C16.7336 6.40906 9.83763 5.7496 7.20363 12.6504C6.11563 15.5006 6.27363 19.2022 6.27363 24.5023C6.27363 29.1532 6.12763 33.5244 7.20363 36.3522C9.83163 43.2571 16.7836 42.5956 23.9916 42.5956C30.9456 42.5956 38.1156 43.3347 40.7816 36.3522C41.8716 33.4734 41.7116 29.827 41.7116 24.5023C41.7116 17.4341 42.0936 12.8709 38.7356 9.44502C35.3356 5.97419 30.7376 6.40906 23.9876 6.40906H23.9956ZM22.4076 9.6696C37.5556 9.6451 39.4836 7.92602 38.4196 31.8074C38.0416 40.2538 31.7416 39.3269 23.9976 39.3269C9.87763 39.3269 9.47163 38.9144 9.47163 24.4942C9.47163 9.90644 10.5916 9.67777 22.4076 9.66552V9.6696ZM33.4556 12.6729C32.2816 12.6729 31.3296 13.6447 31.3296 14.8432C31.3296 16.0416 32.2816 17.0135 33.4556 17.0135C34.6296 17.0135 35.5816 16.0416 35.5816 14.8432C35.5816 13.6447 34.6296 12.6729 33.4556 12.6729ZM23.9956 15.2107C18.9696 15.2107 14.8956 19.3716 14.8956 24.5023C14.8956 29.633 18.9696 33.7919 23.9956 33.7919C29.0216 33.7919 33.0936 29.633 33.0936 24.5023C33.0936 19.3716 29.0216 15.2107 23.9956 15.2107ZM23.9956 18.4712C31.8056 18.4712 31.8156 30.5334 23.9956 30.5334C16.1876 30.5334 16.1756 18.4712 23.9956 18.4712Z" fill="white"/>
</g>
<defs>
<linearGradient id="paint0_linear" x1="3.09244" y1="45.8706" x2="48.4888" y2="7.38237" gradientUnits="userSpaceOnUse">
<stop stop-color="#FFDD55"/>
<stop offset="0.5" stop-color="#FF543E"/>
<stop offset="1" stop-color="#C837AB"/>
</linearGradient>
<clipPath id="clip0">
<rect width="48" height="49" fill="white"/>
</clipPath>
</defs>
</svg>
