<svg width="25" height="19" viewBox="0 0 25 19" fill="none" xmlns="http://www.w3.org/2000/svg">
<path d="M24.3795 9.13374H24.0254C23.6618 9.13374 23.3243 9.2478 23.0468 9.44199V8.63882C23.0468 7.72187 22.3009 6.97593 21.3839 6.97593H18.3052C18.1029 6.97593 17.939 7.13989 17.939 7.34214C17.939 7.54438 18.1029 7.70835 18.3052 7.70835H21.3839C21.8969 7.70835 22.3144 8.12573 22.3144 8.63882V11.2398H9.15132V8.63882C9.15132 8.12573 9.5687 7.70835 10.0818 7.70835H16.5962C16.7984 7.70835 16.9624 7.54438 16.9624 7.34214C16.9624 7.13989 16.7984 6.97593 16.5962 6.97593H5.83154C6.12554 6.56445 6.24048 6.02964 6.09971 5.5041C6.04736 5.30874 5.84644 5.19282 5.65117 5.24512C5.45581 5.29746 5.33989 5.49829 5.39219 5.69365C5.53755 6.23603 5.2145 6.79556 4.67212 6.94087C4.12944 7.08633 3.57021 6.76313 3.4249 6.2208L2.7207 3.59268C2.57534 3.05029 2.89839 2.49077 3.44082 2.34546C3.98447 2.19985 4.54238 2.52183 4.68799 3.06553L4.94624 4.02935C4.99858 4.22471 5.19956 4.34062 5.39478 4.28833C5.59014 4.23599 5.70605 4.03516 5.65376 3.83979L5.39551 2.87598C5.14507 1.94141 4.18608 1.3875 3.25127 1.63799C3.04507 1.69326 2.85435 1.78364 2.68569 1.9041V1.72617C2.68569 0.782715 1.91812 0.0151367 0.974658 0.0151367H0.620605C0.278369 0.0150879 0 0.293506 0 0.635644V18.3643C0 18.7064 0.278369 18.9848 0.620508 18.9848H2.06509C2.40723 18.9848 2.6856 18.7064 2.6856 18.3643V14.9875H3.10024C3.30249 14.9875 3.46645 14.8236 3.46645 14.6213C3.46645 14.4191 3.30249 14.2551 3.10024 14.2551H2.6856V11.9722H22.3143V14.2551H4.80933C4.60708 14.2551 4.44312 14.4191 4.44312 14.6213C4.44312 14.8236 4.60708 14.9875 4.80933 14.9875H22.3144V18.3643C22.3144 18.7064 22.5927 18.9848 22.9349 18.9848H24.3794C24.7216 18.9848 25 18.7064 25 18.3643V9.75425C25 9.41211 24.7216 9.13374 24.3795 9.13374ZM8.14478 7.70835H8.7042C8.52417 7.97407 8.4189 8.29438 8.4189 8.63882V11.2398H7.21436V8.63882C7.21436 8.12573 7.63174 7.70835 8.14478 7.70835ZM2.71743 6.4104C2.78457 6.66094 2.90313 6.88428 3.05864 7.07207C2.92573 7.11948 2.80059 7.1834 2.68564 7.26128V6.29185L2.71743 6.4104ZM1.95322 18.2524H0.732422V0.74751H0.974609C1.51421 0.74751 1.95322 1.18652 1.95322 1.72612V18.2524ZM2.68564 8.63882C2.68564 8.12573 3.10303 7.70835 3.61611 7.70835H6.76724C6.58716 7.97407 6.48193 8.29434 6.48193 8.63882V11.2398H2.68564V8.63882ZM24.2676 18.2524H23.0468V10.8448C23.0468 10.3052 23.4858 9.86616 24.0254 9.86616H24.2676V18.2524Z" fill="black"/>
</svg>
