<svg width="9" height="40" viewBox="0 0 9 40" fill="none" xmlns="http://www.w3.org/2000/svg">
<path d="M4.5 24.4436C6.98528 24.4436 9 22.4537 9 19.9991C9 17.5445 6.98528 15.5547 4.5 15.5547C2.01472 15.5547 0 17.5445 0 19.9991C0 22.4537 2.01472 24.4436 4.5 24.4436Z" fill="white"/>
<path d="M4.5 8.88889C6.98528 8.88889 9 6.89904 9 4.44444C9 1.98985 6.98528 0 4.5 0C2.01472 0 0 1.98985 0 4.44444C0 6.89904 2.01472 8.88889 4.5 8.88889Z" fill="white"/>
<path d="M4.5 40.0002C6.98528 40.0002 9 38.0104 9 35.5558C9 33.1012 6.98528 31.1113 4.5 31.1113C2.01472 31.1113 0 33.1012 0 35.5558C0 38.0104 2.01472 40.0002 4.5 40.0002Z" fill="white"/>
</svg>
