<svg width="28" height="30" viewBox="0 0 28 30" fill="none" xmlns="http://www.w3.org/2000/svg">
<path d="M6.99777 10.3216C6.99777 10.073 7.12065 9.8345 7.33937 9.65869C7.55809 9.48287 7.85473 9.3841 8.16405 9.3841H11.173L11.6885 7.31785C11.7567 7.08001 11.9376 6.87292 12.1928 6.7406C12.4479 6.60828 12.7572 6.56117 13.0549 6.60927C13.3526 6.65737 13.6152 6.7969 13.7869 6.99819C13.9586 7.19949 14.0259 7.44668 13.9744 7.68722L13.5546 9.3841H15.8405L16.3537 7.31972C16.4241 7.08424 16.6053 6.87983 16.8591 6.74931C17.1129 6.61878 17.4197 6.57229 17.7152 6.61955C18.0107 6.66682 18.272 6.80418 18.4443 7.00286C18.6166 7.20154 18.6866 7.44612 18.6396 7.68535L18.2197 9.3841H20.4123C20.7216 9.3841 21.0183 9.48287 21.237 9.65869C21.4557 9.8345 21.5786 10.073 21.5786 10.3216C21.5786 10.5702 21.4557 10.8087 21.237 10.9845C21.0183 11.1603 20.7216 11.2591 20.4123 11.2591H17.7532L17.2867 13.1341H19.8292C20.1385 13.1341 20.4351 13.2329 20.6538 13.4087C20.8726 13.5845 20.9954 13.823 20.9954 14.0716C20.9954 14.3202 20.8726 14.5587 20.6538 14.7345C20.4351 14.9103 20.1385 15.0091 19.8292 15.0091H16.8225L16.314 17.0585C16.2445 17.295 16.0635 17.5006 15.8091 17.632C15.5546 17.7633 15.2467 17.8101 14.9502 17.7624C14.6537 17.7147 14.3918 17.5764 14.2198 17.3765C14.0478 17.1766 13.979 16.9308 14.0281 16.691L14.4433 15.0091H12.1527L11.6419 17.0585C11.6165 17.1826 11.5603 17.3014 11.4765 17.4077C11.3928 17.5141 11.2833 17.6057 11.1546 17.6773C11.0259 17.7489 10.8805 17.799 10.7272 17.8244C10.5739 17.8499 10.4158 17.8503 10.2623 17.8257C10.1088 17.801 9.9631 17.7517 9.83379 17.6808C9.70448 17.6099 9.59425 17.5188 9.50968 17.4129C9.4251 17.307 9.36791 17.1885 9.3415 17.0645C9.3151 16.9405 9.32002 16.8134 9.35599 16.691L9.77585 15.0091H7.58791C7.27859 15.0091 6.98195 14.9103 6.76323 14.7345C6.54451 14.5587 6.42163 14.3202 6.42163 14.0716C6.42163 13.823 6.54451 13.5845 6.76323 13.4087C6.98195 13.2329 7.27859 13.1341 7.58791 13.1341H10.24L10.7065 11.2591H8.16405C7.85473 11.2591 7.55809 11.1603 7.33937 10.9845C7.12065 10.8087 6.99777 10.5702 6.99777 10.3216ZM14.9098 13.1341L15.3763 11.2591H13.0857L12.6192 13.1341H14.9098Z" fill="#8E8E8E"/>
<path d="M4.66511 0H23.3349C24.5722 0 25.7587 0.395088 26.6336 1.09835C27.5085 1.80161 28 2.75544 28 3.75V25.3144C28 25.563 27.8771 25.8015 27.6584 25.9773C27.4397 26.1531 27.143 26.2519 26.8337 26.2519H2.33256C2.33317 26.7488 2.5792 27.2253 3.01657 27.5765C3.45394 27.9277 4.04688 28.125 4.66511 28.125H26.8337C27.143 28.125 27.4397 28.2238 27.6584 28.3996C27.8771 28.5754 28 28.8139 28 29.0625C28 29.3111 27.8771 29.5496 27.6584 29.7254C27.4397 29.9012 27.143 30 26.8337 30H4.66511C3.42785 30 2.24126 29.6049 1.36638 28.9016C0.491501 28.1984 0 27.2446 0 26.25V3.75C0 2.75544 0.491501 1.80161 1.36638 1.09835C2.24126 0.395088 3.42785 0 4.66511 0ZM2.33256 24.3769H25.6674V3.75C25.6674 3.25272 25.4217 2.77581 24.9843 2.42417C24.5468 2.07254 23.9535 1.875 23.3349 1.875H4.66511C4.04648 1.875 3.45319 2.07254 3.01575 2.42417C2.57831 2.77581 2.33256 3.25272 2.33256 3.75V24.3769Z" fill="#8E8E8E"/>
</svg>
