<svg width="45" height="45" viewBox="0 0 45 45" fill="none" xmlns="http://www.w3.org/2000/svg">
<path d="M22.5 8.4375C19.7859 8.4375 17.5781 10.9617 17.5781 14.0625C17.5781 17.1633 19.7859 19.6875 22.5 19.6875C25.2141 19.6875 27.4219 17.1633 27.4219 14.0625C27.4219 10.9617 25.2141 8.4375 22.5 8.4375ZM22.5 18.2812C20.5594 18.2812 18.9844 16.3898 18.9844 14.0625C18.9844 11.7352 20.5594 9.84375 22.5 9.84375C24.4406 9.84375 26.0156 11.7352 26.0156 14.0625C26.0156 16.3898 24.4406 18.2812 22.5 18.2812Z" fill="white"/>
<path d="M38.6719 2.81285C3.69844 2.81285 6.03984 2.7566 5.4 2.93941C4.65697 3.14279 4.0013 3.58459 3.53382 4.1969C3.06633 4.8092 2.8129 5.55811 2.8125 6.32848V21.7972C2.8125 22.7296 3.1829 23.6238 3.8422 24.2831C4.50151 24.9425 5.39572 25.3128 6.32812 25.3128H11.9531C11.9531 31.0925 11.25 34.2636 14.5547 36.38C13.043 37.4488 13.3594 38.9183 13.3594 41.4847C13.3594 42.2306 13.6557 42.946 14.1831 43.4735C14.7106 44.0009 15.426 44.2972 16.1719 44.2972H29.5312C30.2772 44.2972 30.9925 44.0009 31.52 43.4735C32.0474 42.946 32.3438 42.2306 32.3438 41.4847C32.3438 39.0168 32.6602 37.4488 31.1484 36.38C31.9452 35.8722 32.6012 35.1718 33.0559 34.3435C33.5106 33.5153 33.7493 32.5858 33.75 31.641V25.3128C39.0164 25.3128 39.0023 25.3621 39.6 25.1863C40.343 24.9829 40.9987 24.5411 41.4662 23.9288C41.9337 23.3165 42.1871 22.5676 42.1875 21.7972V6.32848C42.1875 5.39607 41.8171 4.50186 41.1578 3.84255C40.4985 3.18325 39.6043 2.81285 38.6719 2.81285ZM29.5312 37.266C29.9042 37.266 30.2619 37.4141 30.5256 37.6779C30.7893 37.9416 30.9375 38.2993 30.9375 38.6722V41.4847C30.9375 41.8577 30.7893 42.2154 30.5256 42.4791C30.2619 42.7428 29.9042 42.891 29.5312 42.891H16.1719C15.7989 42.891 15.4412 42.7428 15.1775 42.4791C14.9138 42.2154 14.7656 41.8577 14.7656 41.4847V38.6722C14.7656 38.2993 14.9138 37.9416 15.1775 37.6779C15.4412 37.4141 15.7989 37.266 16.1719 37.266H29.5312ZM32.3438 31.641C32.3438 32.7599 31.8993 33.8329 31.1081 34.6241C30.3169 35.4153 29.2439 35.8597 28.125 35.8597H17.5781C16.4592 35.8597 15.3862 35.4153 14.595 34.6241C13.8038 33.8329 13.3594 32.7599 13.3594 31.641V25.3128H22.9852C21.9652 26.0228 21.1324 26.9693 20.5581 28.0714C19.9838 29.1735 19.6851 30.3983 19.6875 31.641C19.6875 31.8275 19.7616 32.0063 19.8934 32.1382C20.0253 32.27 20.2041 32.3441 20.3906 32.3441C20.5771 32.3441 20.7559 32.27 20.8878 32.1382C21.0197 32.0063 21.0938 31.8275 21.0938 31.641C21.0938 29.9627 21.7605 28.3531 22.9472 27.1663C24.134 25.9796 25.7436 25.3128 27.4219 25.3128C27.6084 25.3128 27.7872 25.2388 27.9191 25.1069C28.0509 24.975 28.125 24.7962 28.125 24.6097C28.125 18.9214 27.893 18.3519 28.7367 17.4941C28.9231 17.2981 29.1468 17.1412 29.3946 17.0328C29.6424 16.9243 29.9093 16.8664 30.1798 16.8625C30.4503 16.8586 30.7188 16.9087 30.9697 17.0099C31.2205 17.1111 31.4486 17.2614 31.6406 17.4519C32.5688 18.366 32.3438 17.8035 32.3438 31.641ZM32.5828 16.4324C31.9316 15.801 31.0565 15.4538 30.1495 15.467C29.2426 15.4802 28.3779 15.8527 27.7453 16.5027C26.4867 17.7754 26.7188 19.1043 26.7188 21.0941H9.77344C9.63565 20.4185 9.30222 19.7983 8.81464 19.3107C8.32707 18.8231 7.70688 18.4897 7.03125 18.3519V9.77379C7.70688 9.636 8.32707 9.30257 8.81464 8.81499C9.30222 8.32742 9.63565 7.70723 9.77344 7.0316H35.2266C35.3644 7.70723 35.6978 8.32742 36.1854 8.81499C36.6729 9.30257 37.2931 9.636 37.9688 9.77379V18.3519C37.2931 18.4897 36.6729 18.8231 36.1854 19.3107C35.6978 19.7983 35.3644 20.4185 35.2266 21.0941H33.75C33.75 19.1957 33.982 17.7613 32.5828 16.4324ZM40.7812 21.7972C40.7812 22.3567 40.559 22.8932 40.1634 23.2888C39.7678 23.6844 39.2313 23.9066 38.6719 23.9066H33.75V22.5004H35.8594C36.0459 22.5004 36.2247 22.4263 36.3566 22.2944C36.4884 22.1625 36.5625 21.9837 36.5625 21.7972C36.5625 21.2378 36.7847 20.7013 37.1803 20.3057C37.5759 19.9101 38.1124 19.6879 38.6719 19.6879C38.8584 19.6879 39.0372 19.6138 39.1691 19.4819C39.3009 19.35 39.375 19.1712 39.375 18.9847V9.14098C39.375 8.9545 39.3009 8.77565 39.1691 8.64379C39.0372 8.51193 38.8584 8.43785 38.6719 8.43785C38.1124 8.43785 37.5759 8.21561 37.1803 7.82003C36.7847 7.42444 36.5625 6.88792 36.5625 6.32848C36.5625 6.142 36.4884 5.96315 36.3566 5.83129C36.2247 5.69943 36.0459 5.62535 35.8594 5.62535H9.14062C8.95414 5.62535 8.7753 5.69943 8.64344 5.83129C8.51158 5.96315 8.4375 6.142 8.4375 6.32848C8.4375 6.88792 8.21526 7.42444 7.81968 7.82003C7.42409 8.21561 6.88757 8.43785 6.32812 8.43785C6.14164 8.43785 5.9628 8.51193 5.83094 8.64379C5.69908 8.77565 5.625 8.9545 5.625 9.14098V18.9847C5.625 19.1712 5.69908 19.35 5.83094 19.4819C5.9628 19.6138 6.14164 19.6879 6.32812 19.6879C6.88757 19.6879 7.42409 19.9101 7.81968 20.3057C8.21526 20.7013 8.4375 21.2378 8.4375 21.7972C8.4375 21.9837 8.51158 22.1625 8.64344 22.2944C8.7753 22.4263 8.95414 22.5004 9.14062 22.5004H26.7188V23.9066H6.32812C5.76868 23.9066 5.23216 23.6844 4.83657 23.2888C4.44099 22.8932 4.21875 22.3567 4.21875 21.7972V6.32848C4.21875 5.76903 4.44099 5.23251 4.83657 4.83692C5.23216 4.44134 5.76868 4.2191 6.32812 4.2191H38.6719C39.2313 4.2191 39.7678 4.44134 40.1634 4.83692C40.559 5.23251 40.7812 5.76903 40.7812 6.32848V21.7972Z" fill="white"/>
</svg>
