<svg width="71" height="70" viewBox="0 0 71 70" fill="none" xmlns="http://www.w3.org/2000/svg">
<path d="M23.1427 19.9896C23.4098 20.2744 23.7595 20.4168 24.1095 20.4168C24.4595 20.4168 24.8092 20.2744 25.0762 19.9896L29.9981 14.7396C30.532 14.1702 30.532 13.2467 29.9981 12.6771C29.4641 12.1076 28.5986 12.1076 28.0645 12.6771L24.1095 16.8961L22.8887 15.5939C22.3547 15.0244 21.4893 15.0244 20.9551 15.5939C20.4212 16.1634 20.4212 17.0868 20.9551 17.6564L23.1427 19.9896Z" fill="black"/>
<path d="M23.1427 28.7396C23.4098 29.0244 23.7595 29.1668 24.1095 29.1668C24.4595 29.1668 24.8092 29.0244 25.0762 28.7396L29.9981 23.4896C30.532 22.9202 30.532 21.9967 29.9981 21.4271C29.4641 20.8576 28.5986 20.8576 28.0645 21.4271L24.1095 25.6461L22.8887 24.3439C22.3547 23.7744 21.4893 23.7744 20.9551 24.3439C20.4212 24.9134 20.4212 25.8368 20.9551 26.4064L23.1427 28.7396Z" fill="black"/>
<path d="M23.1427 37.4896C23.4098 37.7744 23.7595 37.9168 24.1095 37.9168C24.4595 37.9168 24.8092 37.7744 25.0762 37.4896L29.9981 32.2396C30.532 31.6702 30.532 30.7467 29.9981 30.1771C29.4641 29.6076 28.5986 29.6076 28.0645 30.1771L24.1095 34.3961L22.8887 33.0939C22.3547 32.5244 21.4893 32.5244 20.9551 33.0939C20.4212 33.6634 20.4212 34.5868 20.9551 35.1564L23.1427 37.4896Z" fill="black"/>
<path d="M23.1427 46.2396C23.4098 46.5244 23.7595 46.6668 24.1095 46.6668C24.4595 46.6668 24.8092 46.5244 25.0762 46.2396L29.9981 40.9896C30.532 40.4202 30.532 39.4967 29.9981 38.9271C29.4641 38.3576 28.5986 38.3576 28.0645 38.9271L24.1095 43.1461L22.8887 41.8439C22.3547 41.2744 21.4893 41.2744 20.9551 41.8439C20.4212 42.4134 20.4212 43.3368 20.9551 43.9064L23.1427 46.2396Z" fill="black"/>
<path d="M32.3125 20.4167H48.7188C49.4737 20.4167 50.0859 19.7638 50.0859 18.9583C50.0859 18.1529 49.4737 17.5 48.7188 17.5H32.3125C31.5575 17.5 30.9453 18.1529 30.9453 18.9583C30.9453 19.7638 31.5575 20.4167 32.3125 20.4167Z" fill="black"/>
<path d="M32.3125 29.1667H48.7188C49.4737 29.1667 50.0859 28.5138 50.0859 27.7083C50.0859 26.9029 49.4737 26.25 48.7188 26.25H32.3125C31.5575 26.25 30.9453 26.9029 30.9453 27.7083C30.9453 28.5138 31.5575 29.1667 32.3125 29.1667Z" fill="black"/>
<path d="M32.3125 37.9167H48.7188C49.4737 37.9167 50.0859 37.2638 50.0859 36.4583C50.0859 35.6529 49.4737 35 48.7188 35H32.3125C31.5575 35 30.9453 35.6529 30.9453 36.4583C30.9453 37.2638 31.5575 37.9167 32.3125 37.9167Z" fill="black"/>
<path d="M32.3125 46.6667H48.7188C49.4737 46.6667 50.0859 46.0138 50.0859 45.2083C50.0859 44.4029 49.4737 43.75 48.7188 43.75H32.3125C31.5575 43.75 30.9453 44.4029 30.9453 45.2083C30.9453 46.0138 31.5575 46.6667 32.3125 46.6667Z" fill="black"/>
<path d="M35.0469 70.0002C35.802 70.0002 36.4141 69.3472 36.4141 68.5418C36.4141 67.7364 35.802 67.0835 35.0469 67.0835C34.2918 67.0835 33.6797 67.7364 33.6797 68.5418C33.6797 69.3472 34.2918 70.0002 35.0469 70.0002Z" fill="black"/>
<path d="M68.6797 61.25H64.5781V30.625C64.5781 28.2126 62.7382 26.25 60.4766 26.25H55.5547V13.125C55.5547 12.7257 55.4002 12.3562 55.1542 12.0938L44.2167 0.427146C43.9763 0.170479 43.625 0 43.25 0H15.9062C15.1513 0 14.5391 0.652896 14.5391 1.45833V26.25H9.61719C7.35559 26.25 5.51562 28.2126 5.51562 30.625V61.25H1.41406C0.659102 61.25 0.046875 61.9029 0.046875 62.7083C0.046875 66.729 3.11348 70 6.88281 70H28.8945C29.6495 70 30.2617 69.3471 30.2617 68.5417C30.2617 67.7362 29.6495 67.0833 28.8945 67.0833H6.88281C5.10027 67.0833 3.57982 65.8643 3.01559 64.1652H67.0782C66.5139 65.8643 64.9935 67.0833 63.2109 67.0833H41.1992C40.4443 67.0833 39.832 67.7362 39.832 68.5417C39.832 69.3471 40.4443 70 41.1992 70H63.2109C66.9803 70 70.0469 66.729 70.0469 62.7083C70.0469 61.9029 69.4346 61.25 68.6797 61.25ZM44.6172 4.97904L50.8868 11.6667H44.6172V4.97904ZM17.2734 2.91667H41.8828V13.125C41.8828 13.9304 42.495 14.5833 43.25 14.5833H52.8203V55.4167H17.2734V2.91667ZM8.25 30.625C8.25 29.8209 8.86332 29.1667 9.61719 29.1667H14.5391V56.875C14.5391 57.6804 15.1513 58.3333 15.9062 58.3333H54.1875C54.9425 58.3333 55.5547 57.6804 55.5547 56.875V29.1667H60.4766C61.2304 29.1667 61.8438 29.8209 61.8438 30.625V61.25H8.25V30.625Z" fill="black"/>
</svg>
