<svg width="1920" height="190" viewBox="0 0 1920 190" fill="none" xmlns="http://www.w3.org/2000/svg">
<path d="M0 94.5875L64 84.0449C128 73.8965 256 52.2202 384 47.2937C512 42.3673 640 52.2202 768 73.6009C896 94.5875 1024 126.117 1152 131.339C1280 136.955 1408 115.279 1536 89.3655C1664 63.0583 1792 31.5292 1856 15.7646L1920 0V189.175H1856C1792 189.175 1664 189.175 1536 189.175C1408 189.175 1280 189.175 1152 189.175C1024 189.175 896 189.175 768 189.175C640 189.175 512 189.175 384 189.175C256 189.175 128 189.175 64 189.175H0V94.5875Z" fill="white"/>
</svg>
