<svg width="37" height="45" viewBox="0 0 37 45" fill="none" xmlns="http://www.w3.org/2000/svg">
<path d="M33.0469 5.625H25.3125V4.21875C25.3125 1.88877 23.4237 0 21.0938 0H15.4688C13.1388 0 11.25 1.88877 11.25 4.21875V5.625H3.51562C1.57403 5.625 0 7.19903 0 9.14062V11.9531C0 12.7298 0.629561 13.3594 1.40625 13.3594H35.1562C35.9329 13.3594 36.5625 12.7298 36.5625 11.9531V9.14062C36.5625 7.19903 34.9885 5.625 33.0469 5.625ZM14.0625 4.21875C14.0625 3.44355 14.6936 2.8125 15.4688 2.8125H21.0938C21.8689 2.8125 22.5 3.44355 22.5 4.21875V5.625H14.0625V4.21875Z" fill="white"/>
<path d="M2.66795 16.1719C2.41702 16.1719 2.21707 16.3816 2.22902 16.6322L3.38918 40.9816C3.49641 43.2352 5.34738 45 7.60266 45H28.9583C31.2136 45 33.0646 43.2352 33.1718 40.9816L34.332 16.6322C34.3439 16.3816 34.144 16.1719 33.893 16.1719H2.66795ZM23.9055 19.6875C23.9055 18.9105 24.5348 18.2812 25.3117 18.2812C26.0887 18.2812 26.718 18.9105 26.718 19.6875V37.9688C26.718 38.7457 26.0887 39.375 25.3117 39.375C24.5348 39.375 23.9055 38.7457 23.9055 37.9688V19.6875ZM16.8742 19.6875C16.8742 18.9105 17.5035 18.2812 18.2805 18.2812C19.0574 18.2812 19.6867 18.9105 19.6867 19.6875V37.9688C19.6867 38.7457 19.0574 39.375 18.2805 39.375C17.5035 39.375 16.8742 38.7457 16.8742 37.9688V19.6875ZM9.84299 19.6875C9.84299 18.9105 10.4723 18.2812 11.2492 18.2812C12.0262 18.2812 12.6555 18.9105 12.6555 19.6875V37.9688C12.6555 38.7457 12.0262 39.375 11.2492 39.375C10.4723 39.375 9.84299 38.7457 9.84299 37.9688V19.6875Z" fill="white"/>
</svg>
