<svg width="45" height="45" viewBox="0 0 45 45" fill="none" xmlns="http://www.w3.org/2000/svg">
<path d="M35.6254 22.4996C34.5886 22.4996 33.7505 23.3398 33.7505 24.3746V39.3752C33.7505 40.4083 32.9104 41.2501 31.8756 41.2501H5.62508C4.58995 41.2501 3.75017 40.4083 3.75017 39.3752V13.1242C3.75017 12.0911 4.58995 11.2493 5.62508 11.2493H20.6254C21.6623 11.2493 22.5003 10.4091 22.5003 9.37431C22.5003 8.33916 21.6623 7.49902 20.6254 7.49902H5.62508C2.5238 7.49902 0 10.0229 0 13.1242V39.3752C0 42.4765 2.5238 45.0004 5.62508 45.0004H31.8756C34.9769 45.0004 37.5007 42.4765 37.5007 39.3752V24.3746C37.5007 23.3377 36.6623 22.4996 35.6254 22.4996Z" fill="white"/>
<path d="M17.5821 20.7915C17.4509 20.9227 17.3627 21.0895 17.3253 21.2694L15.9997 27.8999C15.9379 28.2072 16.0354 28.5241 16.2565 28.7472C16.4347 28.9254 16.6747 29.0209 16.9205 29.0209C16.9802 29.0209 17.0424 29.0154 17.1042 29.0023L23.7325 27.6767C23.9161 27.639 24.083 27.5511 24.2124 27.4196L39.0476 12.5841L32.4193 5.95605L17.5821 20.7915Z" fill="white"/>
<path d="M43.6265 1.37119C41.7986 -0.457063 38.8247 -0.457063 36.9982 1.37119L34.4033 3.96611L41.0316 10.5945L43.6265 7.99925C44.5116 7.11619 44.9991 5.93856 44.9991 4.68608C44.9991 3.4336 44.5116 2.25596 43.6265 1.37119Z" fill="white"/>
</svg>
