<svg width="60" height="49" viewBox="0 0 60 49" fill="none" xmlns="http://www.w3.org/2000/svg">
<path d="M58.7638 7.66726C58.0721 4.66923 56.0456 2.30605 53.4757 1.49875C48.7805 0 29.9994 0 29.9994 0C29.9994 0 11.2188 0 6.52356 1.44162C4.00313 2.24839 1.92718 4.66977 1.2355 7.66726C0 13.1433 0 24.5 0 24.5C0 24.5 0 35.9139 1.2355 41.3327C1.92763 44.3302 3.95369 46.694 6.52402 47.5013C11.2683 49 29.9999 49 29.9999 49C29.9999 49 48.7805 49 53.4757 47.5584C56.0461 46.7516 58.0721 44.3879 58.7642 41.3904C59.9997 35.9139 59.9997 24.5577 59.9997 24.5577C59.9997 24.5577 60.0492 13.1433 58.7638 7.66726Z" fill="#FF0000"/>
<path d="M24.0195 34.9914L39.6371 24.4996L24.0195 14.0078V34.9914Z" fill="white"/>
</svg>
