<svg width="68" height="39" viewBox="0 0 68 39" fill="none" xmlns="http://www.w3.org/2000/svg">
<path d="M67.7281 2.01403C67.3832 1.22027 66.7232 0.589508 65.8926 0.259874C65.484 0.0934215 65.0452 0.00513248 64.601 0H47.6059C46.7044 0 45.8399 0.342245 45.2024 0.951444C44.565 1.56064 44.2069 2.38689 44.2069 3.24843C44.2069 4.10997 44.565 4.93622 45.2024 5.54542C45.8399 6.15462 46.7044 6.49686 47.6059 6.49686H56.4094L37.4089 24.6556L26.2261 13.9358C25.9101 13.6313 25.5342 13.3896 25.12 13.2247C24.7058 13.0598 24.2615 12.9749 23.8128 12.9749C23.3641 12.9749 22.9198 13.0598 22.5056 13.2247C22.0914 13.3896 21.7155 13.6313 21.3995 13.9358L1.00542 33.4264C0.686838 33.7283 0.433971 34.0876 0.261408 34.4835C0.0888443 34.8793 0 35.3039 0 35.7327C0 36.1616 0.0888443 36.5862 0.261408 36.982C0.433971 37.3779 0.686838 37.7371 1.00542 38.0391C1.32141 38.3436 1.69734 38.5853 2.11154 38.7502C2.52574 38.9151 2.97001 39 3.41872 39C3.86743 39 4.3117 38.9151 4.7259 38.7502C5.14011 38.5853 5.51604 38.3436 5.83202 38.0391L23.8128 20.8224L34.9956 31.5423C35.3116 31.8467 35.6875 32.0884 36.1017 32.2533C36.5159 32.4182 36.9602 32.5031 37.4089 32.5031C37.8576 32.5031 38.3018 32.4182 38.716 32.2533C39.1303 32.0884 39.5062 31.8467 39.8222 31.5423L61.202 11.0771V19.4906C61.202 20.3521 61.5601 21.1784 62.1975 21.7876C62.835 22.3968 63.6995 22.739 64.601 22.739C65.5025 22.739 66.367 22.3968 67.0045 21.7876C67.6419 21.1784 68 20.3521 68 19.4906V3.24843C67.9946 2.82393 67.9022 2.40456 67.7281 2.01403Z" fill="#3B4E63"/>
</svg>
