<svg width="28" height="20" viewBox="0 0 28 20" fill="none" xmlns="http://www.w3.org/2000/svg">
<path d="M26.25 0H1.75C1.28587 0 0.840752 0.175595 0.512563 0.488155C0.184374 0.800716 0 1.22464 0 1.66667V18.3333C0 18.7754 0.184374 19.1993 0.512563 19.5118C0.840752 19.8244 1.28587 20 1.75 20H26.25C26.7141 20 27.1593 19.8244 27.4874 19.5118C27.8156 19.1993 28 18.7754 28 18.3333V1.66667C28 1.22464 27.8156 0.800716 27.4874 0.488155C27.1593 0.175595 26.7141 0 26.25 0ZM24.9025 18.3333H3.2025L9.3275 12.3L8.0675 11.1417L1.75 17.3667V2.93333L12.6263 13.2417C12.9541 13.5521 13.3977 13.7263 13.86 13.7263C14.3223 13.7263 14.7659 13.5521 15.0938 13.2417L26.25 2.675V17.2583L19.81 11.125L18.5763 12.3L24.9025 18.3333ZM2.89625 1.66667H24.8325L13.86 12.0583L2.89625 1.66667Z" fill="#8E8E8E"/>
</svg>
