<svg width="60" height="62" viewBox="0 0 60 62" fill="none" xmlns="http://www.w3.org/2000/svg">
<path d="M14.3616 28.2607C14.3616 36.3986 21.5448 42.9955 30.4061 42.9955C39.2673 42.9955 46.4506 36.3986 46.4506 28.2607C46.4506 20.1228 39.2673 13.526 30.4061 13.526C21.5492 13.5349 14.3719 20.1268 14.3616 28.2607ZM30.4061 15.5582C38.0453 15.5582 44.2377 21.2451 44.2377 28.2607C44.2377 35.2763 38.0453 40.9632 30.4061 40.9632C22.7669 40.9632 16.5745 35.2763 16.5745 28.2607C16.5831 21.2486 22.7707 15.5662 30.4061 15.5582Z" fill="#3B4E63"/>
<path d="M51.9043 45.5005L43.237 49.2614C42.0404 47.2172 39.7448 45.9163 37.2186 45.8508L29.2174 45.6489C27.9505 45.6156 26.7074 45.3209 25.581 44.7866L24.7668 44.3991C20.5982 42.4035 15.6295 42.4085 11.4652 44.412L11.516 42.7181C11.5327 42.157 11.0513 41.6896 10.4403 41.6742L1.66657 41.4524C1.05554 41.437 0.547162 41.8791 0.530414 42.4403L0.000424093 60.1221C-0.0163237 60.6833 0.465043 61.1507 1.07607 61.166L9.84981 61.3878H9.88007C10.4797 61.3878 10.9703 60.9497 10.9865 60.3995L11.0119 59.5536L13.2912 58.4327C14.1859 57.9907 15.2318 57.8855 16.2092 58.1395L29.8203 61.6478C29.8441 61.6543 29.8679 61.6592 29.8922 61.6642C30.876 61.8532 31.8787 61.948 32.8836 61.9475C35.0122 61.9485 37.1159 61.5272 39.0506 60.7116C39.0981 60.6917 39.1441 60.6684 39.1878 60.6421L58.9228 48.919C59.4144 48.6268 59.5733 48.0339 59.2853 47.5655C57.8201 45.178 54.5705 44.2686 51.9043 45.5005ZM2.24302 59.1626L2.71196 43.5119L9.27336 43.6777L8.80442 59.3288L2.24302 59.1626ZM38.0538 58.8966C35.6502 59.8929 32.9657 60.1678 30.3822 59.683L16.8078 56.1837C15.2799 55.7873 13.6446 55.9515 12.2469 56.6416L11.0821 57.2147L11.3939 46.8089C15.0849 44.5544 19.8186 44.3227 23.7495 46.2036L24.5637 46.5911C25.9867 47.2658 27.5561 47.638 29.1569 47.6806L37.1586 47.8826C39.4061 47.9421 41.3148 49.4117 41.7708 51.434L29.8522 51.1319C29.2412 51.1165 28.7328 51.559 28.7155 52.1197C28.6988 52.6808 29.1807 53.1482 29.7912 53.1636L42.9442 53.496H42.975C43.5741 53.4955 44.0642 53.0574 44.0804 52.5077C44.0939 52.0661 44.0582 51.624 43.9734 51.1894L52.8633 47.3318C52.8719 47.3284 52.8806 47.3244 52.8892 47.3204C54.1502 46.7345 55.6748 46.9304 56.7121 47.8121L38.0538 58.8966Z" fill="#3B4E63"/>
<path d="M31.5105 10.6693V1.01612C31.5105 0.454972 31.0151 0 30.4041 0C29.793 0 29.2976 0.454972 29.2976 1.01612V10.6693C29.2976 11.2304 29.793 11.6854 30.4041 11.6854C31.0151 11.6854 31.5105 11.2304 31.5105 10.6693Z" fill="#3B4E63"/>
<path d="M39.8096 10.6694V6.09681C39.8096 5.53566 39.3142 5.08069 38.7032 5.08069C38.0922 5.08069 37.5967 5.53566 37.5967 6.09681V10.6694C37.5967 11.2305 38.0922 11.6855 38.7032 11.6855C39.3142 11.6855 39.8096 11.2305 39.8096 10.6694Z" fill="#3B4E63"/>
<path d="M23.2129 10.6694V6.09681C23.2129 5.53566 22.7175 5.08069 22.1064 5.08069C21.4954 5.08069 21 5.53566 21 6.09681V10.6694C21 11.2305 21.4954 11.6855 22.1064 11.6855C22.7175 11.6855 23.2129 11.2305 23.2129 10.6694Z" fill="#3B4E63"/>
<path d="M24.9271 27.1838H23.6878V29.6492H22.576V23.2507H24.826C25.5643 23.2507 26.1341 23.4163 26.5355 23.7473C26.9368 24.0784 27.1375 24.5574 27.1375 25.1843C27.1375 25.6121 27.0335 25.9709 26.8255 26.261C26.6204 26.5481 26.3333 26.7693 25.9642 26.9246L27.4012 29.592V29.6492H26.2103L24.9271 27.1838ZM23.6878 26.2917H24.8304C25.2054 26.2917 25.4984 26.198 25.7093 26.0105C25.9202 25.8201 26.0257 25.5608 26.0257 25.2327C26.0257 24.8899 25.9276 24.6248 25.7313 24.4373C25.5379 24.2498 25.2479 24.1531 24.8611 24.1472H23.6878V26.2917ZM32.2527 27.3201C32.2527 28.0554 32.0858 28.6428 31.7518 29.0823C31.4178 29.5188 30.9695 29.7371 30.407 29.7371C29.8856 29.7371 29.4681 29.5657 29.1546 29.2229V31.4773H28.0867V24.8943H29.0711L29.1151 25.3777C29.4285 24.9968 29.8548 24.8064 30.3939 24.8064C30.9739 24.8064 31.428 25.0232 31.7562 25.4568C32.0872 25.8875 32.2527 26.4866 32.2527 27.2542V27.3201ZM31.1893 27.2278C31.1893 26.7532 31.0941 26.3767 30.9036 26.0984C30.7161 25.8201 30.4466 25.6809 30.095 25.6809C29.6585 25.6809 29.345 25.8611 29.1546 26.2214V28.3308C29.348 28.7 29.6644 28.8845 30.1038 28.8845C30.4437 28.8845 30.7088 28.7483 30.8992 28.4758C31.0926 28.2004 31.1893 27.7844 31.1893 27.2278Z" fill="#3B4E63"/>
</svg>
