<svg width="71" height="70" viewBox="0 0 71 70" fill="none" xmlns="http://www.w3.org/2000/svg">
<path d="M70.0469 0.000488281H34.5795L22.6275 11.9524V20.3231H16.9824C12.6254 20.3231 9.07913 23.8682 9.07913 28.2263V33.8715H3.43397C1.56655 33.8715 0.046875 35.3911 0.046875 37.2586V50.8069C0.046875 52.2769 0.994133 53.5189 2.30494 53.9863V64.3553C2.30494 67.4681 4.83736 70.0005 7.9501 70.0005H41.8211C44.9338 70.0005 47.4662 67.4681 47.4662 64.3553V63.2263H70.0469V0.000488281ZM33.9178 3.855V11.2908H26.482L33.9178 3.855ZM11.3372 28.2263C11.3372 25.1136 13.8696 22.5811 16.9824 22.5811H32.7888C35.9016 22.5811 38.434 25.1136 38.434 28.2263V33.8715H36.1759V28.2263C36.1759 26.3589 34.6562 24.8392 32.7888 24.8392H16.9824C15.1149 24.8392 13.5953 26.3589 13.5953 28.2263V33.8715H11.3372V28.2263ZM54.2404 38.3876C58.8378 38.3876 62.6359 41.8424 63.1948 46.2908H54.709L49.7243 41.3073V39.6239C51.0949 38.8279 52.6372 38.3876 54.2404 38.3876ZM55.0048 48.5489H63.1936C62.6348 52.9973 58.8367 56.4521 54.2393 56.4521C53.4591 56.4521 52.6982 56.3426 51.962 56.1518L55.0048 48.5489ZM49.7243 50.8069V44.5002L52.9161 47.6919L49.8677 55.3118C49.1406 54.9087 48.4632 54.4119 47.8637 53.8135C48.9622 53.2536 49.7243 52.1234 49.7243 50.8069ZM47.4662 50.8069C47.4662 51.4302 46.9604 51.936 46.3372 51.936H33.9178V49.6779H42.9501C44.1954 49.6779 45.2082 48.6652 45.2082 47.4198V36.1295H46.3372C46.9604 36.1295 47.4662 36.6353 47.4662 37.2586V50.8069ZM42.9501 47.4198H33.7101C33.2427 46.109 32.0007 45.1618 30.5307 45.1618H19.2404C17.7704 45.1618 16.5285 46.109 16.0611 47.4198H6.82107V36.1295H42.9501V47.4198ZM31.6598 48.5489V53.065C31.6598 53.6882 31.154 54.194 30.5307 54.194H19.2404C18.6172 54.194 18.1114 53.6882 18.1114 53.065V48.5489C18.1114 47.9256 18.6172 47.4198 19.2404 47.4198H30.5307C31.154 47.4198 31.6598 47.9256 31.6598 48.5489ZM33.9178 33.8715H15.8533V28.2263C15.8533 27.6042 16.3591 27.0973 16.9824 27.0973H32.7888C33.412 27.0973 33.9178 27.6042 33.9178 28.2263V33.8715ZM2.30494 37.2586C2.30494 36.6353 2.81075 36.1295 3.43397 36.1295H4.563V47.4198C4.563 48.6652 5.57575 49.6779 6.82107 49.6779H15.8533V51.936H3.43397C2.81075 51.936 2.30494 51.4302 2.30494 50.8069V37.2586ZM41.8211 67.7424H7.9501C6.08268 67.7424 4.563 66.2227 4.563 64.3553V54.194H16.0611C16.5285 55.5048 17.7704 56.4521 19.2404 56.4521H30.5307C32.0007 56.4521 33.2427 55.5048 33.7101 54.194H45.2082V64.3553C45.2082 66.2227 43.6885 67.7424 41.8211 67.7424ZM67.7888 60.9682H47.4662V56.4419C49.4003 57.8984 51.7588 58.7102 54.2404 58.7102C60.4659 58.7102 65.5307 53.6453 65.5307 47.4198C65.5307 41.1944 60.4659 36.1295 54.2404 36.1295C52.662 36.1295 51.1288 36.4739 49.7085 37.0982C49.6227 35.3065 48.1504 33.8715 46.3372 33.8715H40.692V28.2263C40.692 23.8682 37.1457 20.3231 32.7888 20.3231H24.8856V13.5489H36.1759V2.25855H67.7888V60.9682Z" fill="black"/>
<path d="M65.5306 4.5166H58.7564V22.5811H56.4983V9.03273H49.7242V22.5811H47.4661V13.5489H40.6919V24.8392H65.5306V4.5166ZM45.208 22.5811H42.95V15.8069H45.208V22.5811ZM51.9822 11.2908H54.2403V22.5811H51.9822V11.2908ZM63.2725 22.5811H61.0145V6.77467H63.2725V22.5811Z" fill="black"/>
<path d="M51.9824 27.0972H65.5308V29.3552H51.9824V27.0972Z" fill="black"/>
<path d="M63.2725 31.6133H65.5305V33.8713H63.2725V31.6133Z" fill="black"/>
<path d="M51.9824 31.6133H61.0147V33.8713H51.9824V31.6133Z" fill="black"/>
<path d="M9.07935 58.71H6.82129V63.2261C6.82129 64.4714 7.83403 65.4842 9.07935 65.4842H18.1116V63.2261H9.07935V58.71Z" fill="black"/>
<path d="M20.3696 63.2261H22.6277V65.4841H20.3696V63.2261Z" fill="black"/>
</svg>
