<svg width="195" height="137" viewBox="0 0 195 137" fill="none" xmlns="http://www.w3.org/2000/svg">
<path d="M97.2385 63.7774C113.575 63.7774 126.818 49.5003 126.818 31.8887C126.818 14.2771 113.575 0 97.2385 0C80.9023 0 67.6592 14.2771 67.6592 31.8887C67.6592 49.5003 80.9023 63.7774 97.2385 63.7774Z" fill="#DC3545"/>
<path d="M156.397 81.9991C168.065 81.9991 177.525 71.8014 177.525 59.2217C177.525 46.6421 168.065 36.4443 156.397 36.4443C144.728 36.4443 135.269 46.6421 135.269 59.2217C135.269 71.8014 144.728 81.9991 156.397 81.9991Z" fill="#DC3545"/>
<path d="M38.6776 81.9987C50.3462 81.9987 59.8055 71.8009 59.8055 59.2213C59.8055 46.6416 50.3462 36.4438 38.6776 36.4438C27.0091 36.4438 17.5498 46.6416 17.5498 59.2213C17.5498 71.8009 27.0091 81.9987 38.6776 81.9987Z" fill="#DC3545"/>
<path d="M97.2339 72.8887C66.9447 72.8887 42.301 99.4564 42.301 132.11C42.301 134.625 44.1942 136.666 46.5268 136.666H147.941C150.274 136.666 152.167 134.625 152.167 132.11C152.167 99.4564 127.523 72.8887 97.2339 72.8887Z" fill="#DC3545"/>
<path d="M45.9622 92.0943C43.3761 91.502 40.7477 91.1104 38.0772 91.1104C17.1098 91.1104 0.046875 109.505 0.046875 132.11C0.046875 134.625 1.94007 136.666 4.2726 136.666H34.6291C34.1557 135.235 33.8515 133.714 33.8515 132.11C33.8515 117.159 38.3815 103.356 45.9622 92.0943Z" fill="#DC3545"/>
<path d="M156.392 91.1104C153.722 91.1104 151.093 91.502 148.507 92.0943C156.088 103.356 160.618 117.159 160.618 132.11C160.618 133.714 160.314 135.235 159.84 136.666H190.197C192.529 136.666 194.423 134.625 194.423 132.11C194.423 109.505 177.36 91.1104 156.392 91.1104Z" fill="#DC3545"/>
</svg>
