<svg width="71" height="70" viewBox="0 0 71 70" fill="none" xmlns="http://www.w3.org/2000/svg">
<path d="M69.3444 33.2309L64.3424 28.2332L36.8173 0.73205C35.8402 -0.244017 34.2562 -0.244017 33.2791 0.73205L5.75386 28.2332L0.749336 33.2335C-0.210721 34.2267 -0.183304 35.8094 0.810769 36.7686C1.7805 37.7044 3.3178 37.7044 4.28753 36.7686L5.01813 36.0335V67.4998C5.01813 68.8807 6.13844 70 7.52046 70H62.5708C63.9528 70 65.0731 68.8807 65.0731 67.4998V36.0335L65.8062 36.7661C66.8003 37.7253 68.3844 37.6978 69.3444 36.7047C70.281 35.7358 70.281 34.1997 69.3444 33.2309ZM42.5526 64.9998H27.5389V44.9989H42.5526V64.9998ZM60.0685 64.9998H47.5571V42.4989C47.5571 41.1181 46.4368 39.9987 45.0548 39.9987H25.0365C23.6545 39.9987 22.5342 41.1181 22.5342 42.4989V64.9998H10.0228V31.0333L35.0456 6.03223L60.0685 31.0333V64.9998Z" fill="black"/>
</svg>
