<svg width="69" height="52" viewBox="0 0 69 52" fill="none" xmlns="http://www.w3.org/2000/svg">
<path d="M61.0936 0H7.90643C3.54497 0 0 3.56209 0 7.94462V44.0554C0 48.4379 3.54497 52 7.90643 52H61.0936C65.455 52 69 48.4379 69 44.0554V7.94462C69 3.56209 65.455 0 61.0936 0V0ZM21.5625 11.5554C25.5244 11.5554 28.7498 14.7969 28.7498 18.778C28.7498 22.7585 25.5244 26 21.5625 26C17.6006 26 14.3752 22.7585 14.3752 18.778C14.3752 14.7969 17.6006 11.5554 21.5625 11.5554ZM34.5 38.278C34.5 39.474 33.534 40.4446 32.3438 40.4446H10.7812C9.591 40.4446 8.625 39.474 8.625 38.278V36.8333C8.625 32.4508 12.17 28.8887 16.5314 28.8887H26.5936C30.955 28.8887 34.5 32.4508 34.5 36.8333V38.278ZM58.2188 40.4446H42.4064C41.2162 40.4446 40.2502 39.474 40.2502 38.278C40.2502 37.082 41.2162 36.1113 42.4064 36.1113H58.2188C59.409 36.1113 60.375 37.082 60.375 38.278C60.375 39.474 59.409 40.4446 58.2188 40.4446ZM58.2188 28.8887H42.4064C41.2162 28.8887 40.2502 27.9181 40.2502 26.722C40.2502 25.526 41.2162 24.5554 42.4064 24.5554H58.2188C59.409 24.5554 60.375 25.526 60.375 26.722C60.375 27.9181 59.409 28.8887 58.2188 28.8887ZM58.2188 17.3333H42.4064C41.2162 17.3333 40.2502 16.3627 40.2502 15.1667C40.2502 13.9707 41.2162 13 42.4064 13H58.2188C59.409 13 60.375 13.9707 60.375 15.1667C60.375 16.3627 59.409 17.3333 58.2188 17.3333Z" fill="#3B4E63"/>
</svg>
