<svg width="55" height="54" viewBox="0 0 55 54" fill="none" xmlns="http://www.w3.org/2000/svg">
<path d="M54.0797 25.8685C55.0725 24.7767 54.9766 23.1032 53.8657 22.1317L29.3901 0.71548C28.2792 -0.256037 26.4981 -0.235686 25.4105 0.761361L0.851764 23.2735C-0.235792 24.2706 -0.289171 25.9419 0.733583 27.005L1.34931 27.6463C2.37081 28.7094 4.02196 28.8361 5.03489 27.9285L6.87028 26.2849V50.3482C6.87028 51.8246 8.06656 53.0198 9.54186 53.0198H19.1149C20.5902 53.0198 21.7865 51.8246 21.7865 50.3482V33.5136H33.9971V50.3482C33.9758 51.8235 35.0314 53.0187 36.5067 53.0187H46.6518C48.1271 53.0187 49.3234 51.8235 49.3234 50.3471V26.6237C49.3234 26.6237 49.8304 27.0679 50.4557 27.6175C51.08 28.1661 52.3913 27.7262 53.384 26.6333L54.0797 25.8685Z" fill="#3B4E63"/>
</svg>
