<svg width="45" height="25" viewBox="0 0 45 25" fill="none" xmlns="http://www.w3.org/2000/svg">
<path d="M44.8334 11.9929C44.479 11.5018 35.9626 0 22.4999 0C10.9478 0 0.653895 11.4357 0.220763 11.9232C-0.0735877 12.2554 -0.0735877 12.7429 0.220763 13.0768C0.653895 13.5643 10.9478 25 22.4999 25C34.052 25 44.3459 13.5643 44.779 13.0768C45.0509 12.7697 45.0753 12.325 44.8334 11.9929ZM22.4999 23.2143C13.2392 23.2143 4.43396 14.8036 2.1971 12.5C4.43027 10.1947 13.2261 1.78577 22.4999 1.78577C33.3357 1.78577 40.984 10.184 42.8515 12.4518C40.6952 14.6822 31.8394 23.2143 22.4999 23.2143Z" fill="black"/>
<path d="M22.5001 5.35712C18.3638 5.35712 15 8.56068 15 12.4999C15 16.4392 18.3638 19.6428 22.5001 19.6428C26.6364 19.6428 30.0002 16.4392 30.0002 12.4999C30.0002 8.56068 26.6364 5.35712 22.5001 5.35712ZM22.5001 17.8572C19.3988 17.8572 16.875 15.4536 16.875 12.5C16.875 9.54648 19.3988 7.14289 22.5001 7.14289C25.6014 7.14289 28.1252 9.54648 28.1252 12.5C28.1252 15.4536 25.6014 17.8572 22.5001 17.8572Z" fill="black"/>
</svg>
