<svg width="10" height="10" viewBox="0 0 10 10" fill="none" xmlns="http://www.w3.org/2000/svg">
<g clip-path="url(#clip0_1886:1153)">
<path d="M9.93342 1.88476L8.11524 0.0665838C8.07263 0.0239702 8.01493 0 7.95454 0H0.909099C0.407941 0 0 0.407706 0 0.909099V9.09092C0 9.59229 0.407941 10 0.909099 10H9.09092C9.59208 10 10 9.59231 10 9.09092V2.04546C10 1.98509 9.97603 1.92737 9.93342 1.88476ZM2.27274 0.454539H7.27275V3.18181C7.27275 3.43238 7.06899 3.63635 6.81821 3.63635H2.72727C2.47647 3.63635 2.27274 3.43238 2.27274 3.18181V0.454539ZM8.18182 9.54546H1.81818V5.45455H8.18182V9.54546ZM9.54546 9.09092C9.54546 9.34149 9.3417 9.54546 9.09092 9.54546H8.63638V5.22727C8.63638 5.10164 8.53473 4.99999 8.4091 4.99999H1.59092C1.46529 4.99999 1.36364 5.10164 1.36364 5.22727V9.54546H0.909099C0.658296 9.54546 0.45456 9.34149 0.45456 9.09092V0.909099C0.45456 0.65853 0.658317 0.45456 0.909099 0.45456H1.8182V3.18183C1.81818 3.68321 2.22612 4.09091 2.72727 4.09091H6.81819C7.31934 4.09091 7.72728 3.68321 7.72728 3.18181V0.454539H7.86045L9.54546 2.13957V9.09092Z" fill="white"/>
<path d="M5.68236 3.18094H6.59146C6.71708 3.18094 6.81874 3.07928 6.81874 2.95366V1.13548C6.81874 1.00986 6.71708 0.908203 6.59146 0.908203H5.68236C5.55673 0.908203 5.45508 1.00986 5.45508 1.13548V2.95366C5.45508 3.07928 5.55673 3.18094 5.68236 3.18094ZM5.90962 1.36276H6.36416V2.7264H5.90962V1.36276Z" fill="white"/>
</g>
<defs>
<clipPath id="clip0_1886:1153">
<rect width="10" height="10" fill="white"/>
</clipPath>
</defs>
</svg>
