<svg width="45" height="45" viewBox="0 0 45 45" fill="none" xmlns="http://www.w3.org/2000/svg">
<g clip-path="url(#clip0)">
<path d="M44.7004 8.48142L36.5186 0.299627C36.3268 0.107866 36.0672 0 35.7954 0H4.09094C1.83573 0 0 1.83468 0 4.09094V40.9091C0 43.1653 1.83573 45.0001 4.09094 45.0001H40.9091C43.1644 45.0001 45.0001 43.1654 45.0001 40.9091V9.20455C45 8.93292 44.8921 8.67318 44.7004 8.48142ZM10.2273 2.04542H32.7274V14.3182C32.7274 15.4457 31.8105 16.3636 30.6819 16.3636H12.2727C11.1441 16.3636 10.2273 15.4457 10.2273 14.3182V2.04542ZM36.8182 42.9546H8.18179V24.5455H36.8182V42.9546ZM42.9546 40.9091C42.9546 42.0367 42.0377 42.9546 40.9091 42.9546H38.8637V23.5227C38.8637 22.9574 38.4063 22.5 37.841 22.5H7.15913C6.59381 22.5 6.13637 22.9574 6.13637 23.5227V42.9546H4.09094C2.96233 42.9546 2.04552 42.0367 2.04552 40.9091V4.09094C2.04552 2.96339 2.96243 2.04552 4.09094 2.04552H8.18189V14.3183C8.18179 16.5744 10.0175 18.4091 12.2727 18.4091H30.6818C32.937 18.4091 34.7728 16.5744 34.7728 14.3182V2.04542H35.372L42.9546 9.62806V40.9091Z" fill="white"/>
<path d="M25.5696 14.3181H29.6606C30.2259 14.3181 30.6833 13.8607 30.6833 13.2954V5.11358C30.6833 4.54827 30.2259 4.09082 29.6606 4.09082H25.5696C25.0043 4.09082 24.5469 4.54827 24.5469 5.11358V13.2954C24.5469 13.8607 25.0043 14.3181 25.5696 14.3181ZM26.5923 6.13634H28.6377V12.2727H26.5923V6.13634Z" fill="white"/>
</g>
<defs>
<clipPath id="clip0">
<rect width="45" height="45" fill="white"/>
</clipPath>
</defs>
</svg>
