<svg width="65" height="50" viewBox="0 0 65 50" fill="none" xmlns="http://www.w3.org/2000/svg">
<path d="M64.7401 2.58209C64.4104 1.56445 63.7795 0.75578 62.9856 0.333172C62.595 0.119771 62.1755 0.0065801 61.7509 0H45.5056C44.6439 0 43.8175 0.438776 43.2082 1.2198C42.5989 2.00082 42.2566 3.06012 42.2566 4.16465C42.2566 5.26919 42.5989 6.32848 43.2082 7.10951C43.8175 7.89053 44.6439 8.32931 45.5056 8.32931H53.9207L35.7585 31.6097L25.0691 17.8664C24.767 17.476 24.4077 17.1662 24.0118 16.9548C23.6158 16.7433 23.1912 16.6345 22.7622 16.6345C22.3333 16.6345 21.9087 16.7433 21.5127 16.9548C21.1168 17.1662 20.7575 17.476 20.4554 17.8664L0.961066 42.8543C0.656537 43.2415 0.414825 43.7021 0.249875 44.2096C0.0849247 44.7171 0 45.2614 0 45.8112C0 46.361 0.0849247 46.9053 0.249875 47.4128C0.414825 47.9203 0.656537 48.3809 0.961066 48.7681C1.26311 49.1584 1.62246 49.4683 2.01839 49.6797C2.41431 49.8911 2.83898 50 3.2679 50C3.69681 50 4.12148 49.8911 4.51741 49.6797C4.91334 49.4683 5.27269 49.1584 5.57473 48.7681L22.7622 26.6954L33.4516 40.4388C33.7537 40.8291 34.113 41.139 34.509 41.3504C34.9049 41.5618 35.3296 41.6707 35.7585 41.6707C36.1874 41.6707 36.6121 41.5618 37.008 41.3504C37.4039 41.139 37.7633 40.8291 38.0653 40.4388L58.5019 14.2015V24.9879C58.5019 26.0925 58.8442 27.1518 59.4535 27.9328C60.0628 28.7138 60.8892 29.1526 61.7509 29.1526C62.6126 29.1526 63.4391 28.7138 64.0484 27.9328C64.6577 27.1518 65 26.0925 65 24.9879V4.16465C64.9949 3.62043 64.9066 3.08277 64.7401 2.58209Z" fill="white"/>
</svg>
