<svg width="55" height="50" viewBox="0 0 55 50" fill="none" xmlns="http://www.w3.org/2000/svg">
<path d="M54.3109 24.3952C55.3079 23.3655 55.2116 21.7874 54.096 20.8712L29.5158 0.674729C28.4001 -0.241454 26.6113 -0.222262 25.5191 0.717996L0.855405 21.948C-0.2368 22.8882 -0.290407 24.4644 0.736719 25.4669L1.35507 26.0716C2.38094 27.0742 4.03915 27.1937 5.05642 26.3378C5.78592 25.7243 6.89965 26.243 6.89965 27.1961V47.4806C6.89965 48.8729 8.10104 50 9.58265 50H19.1966C20.6783 50 21.8797 48.8729 21.8797 47.4806V37.7362C21.8797 34.3499 24.6248 31.6048 28.011 31.6048C31.3973 31.6048 34.1424 34.3499 34.1424 37.7362V47.4806C34.1211 48.8719 35.1812 49.999 36.6628 49.999H46.8512C48.3328 49.999 49.5342 48.8719 49.5342 47.4796V26.581C49.5342 25.993 50.218 25.6703 50.6714 26.0445C51.2984 26.5619 52.6152 26.1471 53.6122 25.1164L54.3109 24.3952Z" fill="white"/>
</svg>
