<svg width="100" height="100" viewBox="0 0 100 100" fill="none" xmlns="http://www.w3.org/2000/svg">
<circle cx="50" cy="50" r="50" fill="#FF832A" fill-opacity="0.1"/>
<path d="M65.0391 69.1406C64.2844 69.1406 63.6719 69.7531 63.6719 70.5078C63.6719 71.2625 64.2844 71.875 65.0391 71.875C65.7938 71.875 66.4062 71.2625 66.4062 70.5078C66.4062 69.7531 65.7938 69.1406 65.0391 69.1406Z" fill="#FF832A"/>
<path d="M68.4054 64.7196L61.9071 62.5539L59.5743 57.8881C61.6759 55.749 63.1351 52.9187 63.6272 49.9665L63.9181 48.2227H66.4062C68.6679 48.2227 70.5078 46.3827 70.5078 44.1211V35.5078C70.5078 24.1998 61.308 15 50 15C38.663 15 29.4922 24.1734 29.4922 35.5078V44.1211C29.4922 45.9034 30.6353 47.4231 32.2266 47.9875V49.5898C32.2266 51.8514 34.0665 53.6914 36.3281 53.6914H37.5288C38.1215 54.9789 38.8886 56.1713 39.8221 57.2425C40.0157 57.4651 40.2176 57.6809 40.4245 57.8907L38.0929 62.5539L31.5945 64.7197C24.0387 67.2391 18.5547 75.1933 18.5547 83.6328C18.5547 84.3879 19.1668 85 19.9219 85H80.0781C80.8331 85 81.4453 84.3879 81.4453 83.6328C81.4453 75.1933 75.9614 67.2391 68.4054 64.7196ZM67.7734 44.1211C67.7734 44.875 67.1601 45.4883 66.4062 45.4883H64.3196C64.6672 42.7963 64.8988 39.9316 64.9919 37.1102C64.9946 37.0306 64.9968 36.9532 64.9993 36.875H67.7734V44.1211ZM33.5938 45.4883C32.8399 45.4883 32.2266 44.875 32.2266 44.1211V36.875H35.0017C35.0062 37.0176 35.011 37.1609 35.0163 37.3051C35.0164 37.31 35.0167 37.3148 35.0169 37.3197C35.0169 37.3202 35.0169 37.3206 35.0169 37.321C35.1126 40.0652 35.3412 42.8555 35.6808 45.4881H33.5938V45.4883ZM36.3281 50.957C35.5743 50.957 34.9609 50.3437 34.9609 49.5898V48.2227H36.0818L36.3727 49.9671C36.4282 50.2986 36.4964 50.6289 36.5753 50.957H36.3281ZM34.9633 34.1406H32.2785C32.971 24.9776 40.6179 17.7344 50 17.7344C59.3404 17.7344 67.0209 24.9766 67.7213 34.1406H65.0369C64.9384 26.5901 58.7898 20.4688 51.2238 20.4688H48.7765C41.2106 20.4688 35.0616 26.5901 34.9633 34.1406ZM48.7764 23.2031H51.2236C57.3499 23.2031 62.3082 28.214 62.3047 34.3334C62.3047 34.7637 62.3013 35.1383 62.294 35.4791C62.294 35.4835 62.2939 35.488 62.2939 35.4925L60.5838 35.2482C55.9381 34.5848 51.5516 32.3916 48.2324 29.0723C47.9759 28.816 47.6282 28.6719 47.2656 28.6719C43.5939 28.6719 40.0791 30.3448 37.7557 33.171C38.3283 27.604 43.0346 23.2031 48.7764 23.2031ZM39.4098 50.957C38.7254 48.6803 37.9422 41.981 37.7691 37.6881L39.6092 35.2345C41.2992 32.9819 43.9285 31.5823 46.7253 31.4217C50.4054 34.9239 55.1662 37.2366 60.1972 37.9549L62.2099 38.2426C62.0754 41.098 61.8005 43.9633 61.4066 46.5986C61.4064 46.5994 61.4063 46.6004 61.4062 46.6013C61.2809 47.4486 61.1822 47.9938 60.9301 49.5167C60.2061 53.8596 56.9655 57.7868 52.6878 58.8564C50.9272 59.2959 49.0725 59.2958 47.3129 58.8564C44.6419 58.1886 42.1927 56.3405 40.6121 53.6914H43.3992C43.9636 55.2827 45.4832 56.4258 47.2656 56.4258H50C52.2661 56.4258 54.1016 54.5905 54.1016 52.3242C54.1016 50.0626 52.2616 48.2227 50 48.2227H47.2656C45.4436 48.2227 43.9464 49.3995 43.3969 50.957H39.4098ZM47.1506 61.6233C48.0884 61.8208 49.0445 61.9219 50 61.9219C50.748 61.9219 51.4961 61.8593 52.2358 61.7379L49.8199 64.2927L47.1506 61.6233ZM47.9403 66.2803L43.6039 70.8662C42.4101 68.581 41.3843 66.2028 40.5429 63.7681L42.1713 60.5112L47.9403 66.2803ZM57.5969 60.048L59.4568 63.768C58.6141 66.2068 57.588 68.5858 56.3954 70.8682L51.7541 66.2269L57.5969 60.048ZM45.8984 52.3242C45.8984 51.5694 46.5107 50.957 47.2656 50.957H50C50.7539 50.957 51.3672 51.5704 51.3672 52.3242C51.3672 53.0792 50.7548 53.6914 50 53.6914H47.2656C46.5118 53.6914 45.8984 53.0781 45.8984 52.3242ZM21.3438 82.2656C21.8856 75.4927 26.393 69.3365 32.4593 67.3137L38.2143 65.3958C39.2687 68.3113 40.5749 71.1451 42.1057 73.8368C42.1083 73.8414 42.1108 73.8461 42.1134 73.8506C42.1134 73.8507 42.1135 73.8507 42.1135 73.8509C43.232 75.8181 44.4909 77.7405 45.8558 79.5656L47.5377 82.2656H21.3438ZM50 81.0469L48.1458 78.0701C48.125 78.0368 48.1029 78.0044 48.0794 77.9729C46.9722 76.4961 45.9395 74.9516 44.9988 73.3707L49.8746 68.2145L55.0122 73.3521C54.0653 74.9445 53.029 76.4954 51.9209 77.9727C51.8539 78.0619 51.9489 77.9212 50 81.0469ZM52.4623 82.2656L54.1441 79.5657C55.515 77.7337 56.7829 75.7958 57.9126 73.8055C57.9194 73.7934 57.9259 73.7811 57.9327 73.7691C57.9335 73.7676 57.9343 73.7662 57.9352 73.7647C59.4466 71.0987 60.7391 68.2896 61.7857 65.3958L67.5406 67.3137C73.607 69.3365 78.1144 75.4927 78.6562 82.2656H52.4623Z" fill="#FF832A"/>
<path d="M74.5473 76.7324C73.6336 74.9035 72.2953 73.2787 70.6769 72.0338C70.0784 71.5732 69.2201 71.6851 68.7597 72.2837C68.2993 72.8822 68.4112 73.7406 69.0097 74.201C70.3022 75.1954 71.3711 76.4932 72.101 77.9544C72.4391 78.631 73.2608 78.9033 73.9351 78.5664C74.6105 78.229 74.8846 77.4079 74.5473 76.7324Z" fill="#FF832A"/>
</svg>
