<svg width="60" height="50" viewBox="0 0 60 50" fill="none" xmlns="http://www.w3.org/2000/svg">
<path d="M53.1248 0H6.87515C3.08258 0 0 3.42509 0 7.63906V42.3609C0 46.5749 3.08258 50 6.87515 50H53.1248C56.9174 50 60 46.5749 60 42.3609V7.63906C60 3.42509 56.9174 0 53.1248 0V0ZM18.75 11.1109C22.1951 11.1109 24.9998 14.2278 24.9998 18.0557C24.9998 21.8831 22.1951 25 18.75 25C15.3049 25 12.5002 21.8831 12.5002 18.0557C12.5002 14.2278 15.3049 11.1109 18.75 11.1109ZM30 36.8057C30 37.9557 29.16 38.8891 28.125 38.8891H9.375C8.34 38.8891 7.5 37.9557 7.5 36.8057V35.4167C7.5 31.2027 10.5826 27.7776 14.3752 27.7776H23.1248C26.9174 27.7776 30 31.2027 30 35.4167V36.8057ZM50.625 38.8891H36.8752C35.8401 38.8891 35.0002 37.9557 35.0002 36.8057C35.0002 35.6557 35.8401 34.7224 36.8752 34.7224H50.625C51.66 34.7224 52.5 35.6557 52.5 36.8057C52.5 37.9557 51.66 38.8891 50.625 38.8891ZM50.625 27.7776H36.8752C35.8401 27.7776 35.0002 26.8443 35.0002 25.6943C35.0002 24.5443 35.8401 23.6109 36.8752 23.6109H50.625C51.66 23.6109 52.5 24.5443 52.5 25.6943C52.5 26.8443 51.66 27.7776 50.625 27.7776ZM50.625 16.6667H36.8752C35.8401 16.6667 35.0002 15.7333 35.0002 14.5833C35.0002 13.4333 35.8401 12.5 36.8752 12.5H50.625C51.66 12.5 52.5 13.4333 52.5 14.5833C52.5 15.7333 51.66 16.6667 50.625 16.6667Z" fill="white"/>
</svg>
