<svg width="100" height="100" viewBox="0 0 100 100" fill="none" xmlns="http://www.w3.org/2000/svg">
<circle cx="50" cy="50" r="50" fill="#7334FF" fill-opacity="0.1"/>
<path d="M58.0803 35.2451C58.0801 33.6469 57.606 32.0846 56.7179 30.7558C55.8298 29.427 54.5676 28.3913 53.0909 27.7799C51.6143 27.1684 49.9894 27.0085 48.4219 27.3205C46.8544 27.6324 45.4146 28.4021 44.2845 29.5323C43.1544 30.6626 42.3849 32.1025 42.0732 33.6701C41.7614 35.2376 41.9215 36.8624 42.5332 38.339C43.1449 39.8156 44.1807 41.0776 45.5096 41.9655C46.8385 42.8535 48.4009 43.3274 49.9991 43.3274C52.1418 43.3248 54.1959 42.4724 55.7109 40.9572C57.2259 39.442 58.078 37.3878 58.0803 35.2451ZM43.832 35.2451C43.8323 34.0254 44.1941 32.8332 44.8719 31.8192C45.5497 30.8051 46.5129 30.0148 47.6399 29.5482C48.7668 29.0816 50.0067 28.9597 51.203 29.1977C52.3992 29.4358 53.498 30.0233 54.3603 30.8858C55.2227 31.7483 55.81 32.8472 56.0478 34.0435C56.2857 35.2397 56.1635 36.4797 55.6967 37.6065C55.2299 38.7333 54.4394 39.6964 53.4253 40.374C52.4111 41.0517 51.2188 41.4133 49.9991 41.4133C48.3639 41.4114 46.7962 40.7609 45.64 39.6045C44.4839 38.4482 43.8336 36.8803 43.832 35.2451Z" fill="#7334FF"/>
<path d="M82.4446 81.2093L74.6429 60.7562C74.5737 60.5751 74.4512 60.4193 74.2915 60.3093C74.1319 60.1994 73.9426 60.1405 73.7488 60.1404H58.9831C59.0734 59.9933 59.1631 59.8505 59.2533 59.7029C64.9348 50.2966 67.7938 42.0684 67.7528 35.2499C67.7536 30.5413 65.8839 26.0253 62.555 22.6952C59.2261 19.3652 54.7107 17.494 50.0021 17.4932C45.2935 17.4924 40.7774 19.3621 37.4474 22.691C34.1174 26.0199 32.2461 30.5353 32.2453 35.2439C32.2043 42.0684 35.0634 50.2977 40.7449 59.7029C40.8351 59.8522 40.9248 59.9949 41.015 60.1404H26.2494C26.0555 60.1405 25.8663 60.1994 25.7066 60.3093C25.547 60.4193 25.4244 60.5751 25.3552 60.7562L17.5546 81.2093C17.499 81.3542 17.4796 81.5105 17.4979 81.6646C17.5162 81.8187 17.5718 81.966 17.6599 82.0939C17.7479 82.2217 17.8657 82.3261 18.0032 82.3982C18.1406 82.4703 18.2936 82.5078 18.4488 82.5076H81.5505C81.7057 82.5078 81.8586 82.4703 81.9961 82.3982C82.1335 82.3261 82.2513 82.2217 82.3394 82.0939C82.4274 81.966 82.483 81.8187 82.5013 81.6646C82.5197 81.5105 82.5002 81.3542 82.4446 81.2093ZM34.1599 35.2455C34.1603 33.1654 34.5703 31.1058 35.3667 29.1842C36.163 27.2625 37.3301 25.5166 38.8012 24.046C40.2723 22.5754 42.0187 21.409 43.9406 20.6133C45.8625 19.8176 47.9223 19.4082 50.0023 19.4086C52.0824 19.409 54.1421 19.819 56.0637 20.6154C57.9853 21.4117 59.7313 22.5788 61.2019 24.0499C62.6725 25.521 63.8389 27.2673 64.6346 29.1892C65.4303 31.1111 65.8397 33.1709 65.8393 35.251C65.9213 48.8452 53.212 65.6119 49.9996 69.6325C46.7873 65.6135 34.0773 48.8512 34.1599 35.2455ZM49.2706 71.7653C49.3605 71.8709 49.4722 71.9558 49.5981 72.014C49.7239 72.0721 49.861 72.1023 49.9996 72.1023C50.1383 72.1023 50.2753 72.0721 50.4012 72.014C50.527 71.9558 50.6388 71.8709 50.7286 71.7653C53.2696 68.6699 55.6253 65.4269 57.7833 62.0534H73.0887L74.3137 65.2663L44.4045 75.9035L33.7438 62.0517H42.2148C44.3732 65.4259 46.7292 68.6694 49.2706 71.7653ZM44.3712 77.945H44.3766L62.2195 71.6012L69.1402 80.5935H36.9293L44.3712 77.945ZM26.9095 62.0517H31.3282L42.5074 76.5778L31.2183 80.593H19.8378L26.9095 62.0517ZM71.558 80.5935L64.1156 70.9237L74.9984 67.0534L80.1625 80.5935H71.558Z" fill="#7334FF"/>
</svg>
