<svg width="100" height="100" viewBox="0 0 100 100" fill="none" xmlns="http://www.w3.org/2000/svg">
<circle cx="50" cy="50" r="50" fill="#A2A846" fill-opacity="0.1"/>
<path d="M40.1562 28.125H42.3438V30.3125H40.1562V28.125Z" fill="#A2A846"/>
<path d="M44.5312 28.125H46.7188V30.3125H44.5312V28.125Z" fill="#A2A846"/>
<path d="M48.9062 28.125H51.0938V30.3125H48.9062V28.125Z" fill="#A2A846"/>
<path d="M55.4688 21.5625H57.6562V23.75H55.4688V21.5625Z" fill="#A2A846"/>
<path d="M76.1667 82.1377C76.2495 81.9377 76.2711 81.7178 76.2289 81.5056C76.1866 81.2933 76.0824 81.0984 75.9294 80.9455L69.5856 74.6017L67.5239 66.3537L68.587 58.9163C68.6034 58.7996 68.6012 58.6811 68.5804 58.5652L66.3929 46.5645C66.314 45.7379 65.9404 44.9673 65.3405 44.3932C64.7405 43.8191 63.9541 43.4799 63.1248 43.4375C62.7533 43.4413 62.3851 43.509 62.0365 43.6377V22.6562C62.0348 21.2064 61.4581 19.8164 60.4329 18.7912C59.4076 17.766 58.0177 17.1892 56.5678 17.1875H34.6873C33.2375 17.1892 31.8475 17.766 30.8222 18.7912C29.797 19.8164 29.2203 21.2064 29.2186 22.6562V36.0744C28.4228 35.8261 27.5679 35.8434 26.7828 36.1236C26.0969 36.3615 25.4835 36.7714 25.0013 37.3141C24.5191 37.8568 24.1842 38.5141 24.0287 39.2233C23.8727 39.9117 23.8934 40.6285 24.0888 41.3068C24.2843 41.9851 24.6481 42.6029 25.1465 43.1028L28.3797 46.3359C27.492 46.7841 26.7982 47.5404 26.4279 48.4633C26.0577 49.3862 26.0365 50.4123 26.3683 51.3497C25.5017 51.4845 24.7001 51.8899 24.0779 52.508C23.6886 52.8965 23.3797 53.358 23.1689 53.866C22.9581 54.3741 22.8496 54.9187 22.8496 55.4688C22.8496 56.0188 22.9581 56.5634 23.1689 57.0715C23.3797 57.5795 23.6886 58.041 24.0779 58.4295L25.8673 60.2189C25.1917 60.4077 24.5751 60.7653 24.0758 61.258C23.2915 62.0437 22.851 63.1086 22.851 64.2188C22.851 65.3289 23.2915 66.3938 24.0758 67.1795L28.4508 71.5545C28.6822 71.7811 28.9391 71.98 29.2164 72.1473V72.9688C29.2181 74.4186 29.7948 75.8086 30.8201 76.8338C31.8453 77.859 33.2353 78.4358 34.6851 78.4375H45.1698L49.2244 82.492C49.3262 82.5939 49.4471 82.6746 49.5801 82.7296C49.7132 82.7846 49.8558 82.8128 49.9998 82.8125H75.1561C75.3724 82.8126 75.5838 82.7485 75.7637 82.6283C75.9436 82.5082 76.0839 82.3375 76.1667 82.1377ZM40.1561 19.375H51.0936V21.5625H40.1561V19.375ZM31.4061 37.9688V22.6562C31.4061 21.786 31.7518 20.9514 32.3671 20.3361C32.9825 19.7207 33.8171 19.375 34.6873 19.375H37.9686V22.6562C37.9686 22.9463 38.0838 23.2245 38.2889 23.4296C38.494 23.6348 38.7722 23.75 39.0623 23.75H52.1873C52.4774 23.75 52.7556 23.6348 52.9607 23.4296C53.1658 23.2245 53.2811 22.9463 53.2811 22.6562V19.375H56.5623C57.4326 19.375 58.2672 19.7207 58.8825 20.3361C59.4979 20.9514 59.8436 21.786 59.8436 22.6562V67.5H35.4365C35.2531 66.7952 34.8871 66.1513 34.3756 65.633L32.5797 63.837C33.4541 63.5988 34.2252 63.0779 34.7726 62.3555C35.32 61.6332 35.6131 60.7501 35.6061 59.8438C35.5995 59.3931 35.5198 58.9465 35.3698 58.5214C35.9687 58.4306 36.5398 58.2078 37.0419 57.869C37.544 57.5302 37.9644 57.0839 38.2726 56.5625H43.4373C43.7274 56.5625 44.0056 56.4473 44.2107 56.2421C44.4158 56.037 44.5311 55.7588 44.5311 55.4688V48.9062C44.5311 48.6162 44.4158 48.338 44.2107 48.1329C44.0056 47.9277 43.7274 47.8125 43.4373 47.8125H36.8748C36.5847 47.8125 36.3065 47.9277 36.1014 48.1329C35.8963 48.338 35.7811 48.6162 35.7811 48.9062V49.5625L33.2764 47.0589C32.7549 46.5504 32.1105 46.1856 31.4061 46.0002V37.9688ZM37.9686 51.8156V50H42.3436V54.375H38.8851C38.8736 53.4445 38.5509 52.5447 37.9686 51.8189V51.8156ZM26.6931 41.5563C26.4558 41.3157 26.283 41.0193 26.1907 40.6943C26.0983 40.3693 26.0894 40.0262 26.1648 39.6969C26.242 39.3465 26.4092 39.0223 26.65 38.7563C26.8907 38.4903 27.1966 38.2916 27.5375 38.1798C27.7079 38.1184 27.8878 38.0873 28.069 38.088C28.4824 38.0936 28.8839 38.227 29.2186 38.4697V44.0817L26.6931 41.5563ZM28.909 48.6077C29.2929 48.2423 29.801 48.0363 30.3309 48.0312C30.8586 48.0295 31.3655 48.2367 31.7408 48.6077L36.1092 52.975C36.4872 53.352 36.7011 53.863 36.7042 54.3969C36.7027 54.6393 36.6571 54.8795 36.5697 55.1056C36.4732 55.3713 36.3185 55.612 36.1169 55.81C35.7712 56.1562 35.3111 56.3643 34.8229 56.3951C34.3347 56.4259 33.852 56.2773 33.4656 55.9773L28.9134 51.435C28.7269 51.25 28.5789 51.0299 28.4781 50.7873C28.3773 50.5447 28.3256 50.2846 28.3261 50.0219C28.3273 49.4922 28.5367 48.9843 28.909 48.6077ZM25.6278 56.883C25.3478 56.6026 25.1574 56.2454 25.0806 55.8568C25.0038 55.4681 25.0441 55.0653 25.1963 54.6995C25.3486 54.3338 25.606 54.0214 25.9359 53.802C26.2658 53.5826 26.6535 53.4661 27.0497 53.4672C27.5007 53.4683 27.938 53.6225 28.29 53.9047L32.8279 58.4295C33.1898 58.8073 33.3893 59.3118 33.3837 59.8349C33.3781 60.3579 33.1678 60.858 32.7979 61.2279C32.428 61.5978 31.9279 61.8081 31.4048 61.8137C30.8817 61.8193 30.3773 61.6198 29.9995 61.258L25.6278 56.883ZM30.0028 70.008L25.6278 65.633C25.2773 65.2535 25.0872 64.7531 25.0973 64.2365C25.1074 63.72 25.3169 63.2274 25.682 62.8619C26.0471 62.4964 26.5394 62.2863 27.0559 62.2756C27.5724 62.2649 28.073 62.4544 28.4529 62.8045L32.8279 67.1795C33.1898 67.5573 33.3893 68.0618 33.3837 68.5849C33.3781 69.1079 33.1678 69.608 32.7979 69.9779C32.428 70.3478 31.9279 70.5581 31.4048 70.5637C30.8817 70.5693 30.3773 70.3698 29.9995 70.008H30.0028ZM34.6873 76.25C33.8171 76.25 32.9825 75.9043 32.3671 75.2889C31.7518 74.6736 31.4061 73.839 31.4061 72.9688V72.7773H31.4148C32.3335 72.7836 33.228 72.4831 33.9565 71.9234C34.6851 71.3637 35.2059 70.5768 35.4365 69.6875H59.8436V72.9688C59.8436 73.839 59.4979 74.6736 58.8825 75.2889C58.2672 75.9043 57.4326 76.25 56.5623 76.25H34.6873ZM50.4526 80.625L48.2651 78.4375H56.5623C58.0122 78.4358 59.4022 77.859 60.4274 76.8338C61.4526 75.8086 62.0293 74.4186 62.0311 72.9688V46.7122C62.0328 46.4232 62.1488 46.1467 62.3537 45.943C62.5587 45.7393 62.8359 45.625 63.1248 45.625C63.6958 45.625 64.1365 46.2659 64.2361 46.9145L66.3919 58.7719L65.3233 66.2509C65.3037 66.3911 65.3111 66.5336 65.3451 66.6709L67.5326 75.4209C67.5806 75.6134 67.6801 75.7892 67.8203 75.9295L72.5158 80.625H50.4526Z" fill="#A2A846"/>
<path d="M43.4375 71.875H47.8125V74.0625H43.4375V71.875Z" fill="#A2A846"/>
<path d="M36.875 45.625H43.4375C43.7276 45.625 44.0058 45.5098 44.2109 45.3046C44.416 45.0995 44.5312 44.8213 44.5312 44.5312V37.9688C44.5312 37.6787 44.416 37.4005 44.2109 37.1954C44.0058 36.9902 43.7276 36.875 43.4375 36.875H36.875C36.5849 36.875 36.3067 36.9902 36.1016 37.1954C35.8965 37.4005 35.7812 37.6787 35.7812 37.9688V44.5312C35.7812 44.8213 35.8965 45.0995 36.1016 45.3046C36.3067 45.5098 36.5849 45.625 36.875 45.625ZM37.9688 39.0625H42.3438V43.4375H37.9688V39.0625Z" fill="#A2A846"/>
<path d="M46.7188 44.5312C46.7188 44.8213 46.834 45.0995 47.0391 45.3046C47.2442 45.5098 47.5224 45.625 47.8125 45.625H54.375C54.6651 45.625 54.9433 45.5098 55.1484 45.3046C55.3535 45.0995 55.4688 44.8213 55.4688 44.5312V37.9688C55.4688 37.6787 55.3535 37.4005 55.1484 37.1954C54.9433 36.9902 54.6651 36.875 54.375 36.875H47.8125C47.5224 36.875 47.2442 36.9902 47.0391 37.1954C46.834 37.4005 46.7188 37.6787 46.7188 37.9688V44.5312ZM48.9063 39.0625H53.2813V43.4375H48.9063V39.0625Z" fill="#A2A846"/>
<path d="M54.375 47.8125H47.8125C47.5224 47.8125 47.2442 47.9277 47.0391 48.1329C46.834 48.338 46.7188 48.6162 46.7188 48.9062V55.4688C46.7188 55.7588 46.834 56.037 47.0391 56.2421C47.2442 56.4473 47.5224 56.5625 47.8125 56.5625H54.375C54.6651 56.5625 54.9433 56.4473 55.1484 56.2421C55.3535 56.037 55.4688 55.7588 55.4688 55.4688V48.9062C55.4688 48.6162 55.3535 48.338 55.1484 48.1329C54.9433 47.9277 54.6651 47.8125 54.375 47.8125ZM53.2813 54.375H48.9063V50H53.2813V54.375Z" fill="#A2A846"/>
<path d="M40.1562 63.125H42.3438V65.3125H40.1562V63.125Z" fill="#A2A846"/>
<path d="M44.5312 63.125H46.7188V65.3125H44.5312V63.125Z" fill="#A2A846"/>
<path d="M48.9062 63.125H51.0938V65.3125H48.9062V63.125Z" fill="#A2A846"/>
</svg>
