<svg width="28" height="30" viewBox="0 0 28 30" fill="none" xmlns="http://www.w3.org/2000/svg">
<path d="M14 0C9.17525 0 5.25 3.3645 5.25 7.5V10.5H3.5C1.56975 10.5 0 11.8455 0 13.5V27C0 28.6545 1.56975 30 3.5 30H24.5C26.4303 30 28 28.6545 28 27V13.5C28 11.8455 26.4303 10.5 24.5 10.5H22.75V7.5C22.75 3.3645 18.8247 0 14 0ZM8.75 7.5C8.75 5.019 11.1055 3 14 3C16.8945 3 19.25 5.019 19.25 7.5V10.5H8.75V7.5ZM24.5035 27H15.75V23.583C16.7913 23.0625 17.5 22.1055 17.5 21C17.5 19.3455 15.9303 18 14 18C12.0697 18 10.5 19.3455 10.5 21C10.5 22.104 11.2087 23.0625 12.25 23.583V27H3.5V13.5H24.5L24.5035 27Z" fill="#8E8E8E"/>
</svg>
