<svg width="76" height="70" viewBox="0 0 76 70" fill="none" xmlns="http://www.w3.org/2000/svg">
<path d="M66.5594 24.7869H61.7938V16.8466C61.7875 11.6412 57.7928 7.42267 52.8622 7.41672H40.3323C38.8941 7.41746 37.5044 6.8678 36.4203 5.87126L32.4278 2.20163C30.8822 0.78204 28.9036 0 26.8552 0H8.9778C4.04784 0.0059584 0.0525181 4.2245 0.046875 9.42991V59.1475C0.0532235 64.9167 4.32929 69.6753 9.78547 69.9851V70H60.3844C64.4249 69.9918 67.9032 66.9836 68.7052 62.8015L74.8752 35.5359L74.8858 35.4845C75.3782 32.8546 74.7285 30.1301 73.1167 28.0588C71.5042 25.9876 69.0988 24.7869 66.5594 24.7869ZM2.57569 59.1475V9.42991C2.57993 5.69772 5.44381 2.67383 8.97851 2.66936H26.8559C28.2942 2.66936 29.6838 3.21828 30.7687 4.21557L34.7612 7.88445C36.306 9.30404 38.2846 10.0861 40.3323 10.0861H52.8622C56.3969 10.0905 59.2615 13.1152 59.2657 16.8474V24.7869H58.0644C57.4514 21.3281 54.5939 18.8189 51.2609 18.8136H50.8433C50.229 15.2833 47.3164 12.7175 43.9164 12.7122H14.8431C10.1579 12.7182 6.36081 16.7267 6.35587 21.6737V66.1717C4.01257 64.6955 2.57711 62.0277 2.57569 59.1475ZM51.2609 21.483C53.1993 21.4852 54.9085 22.8266 55.4686 24.7869H33.9987C30.0718 24.7743 26.6541 27.6179 25.7463 31.6518L17.8805 60.979L17.8664 61.0348C17.5709 62.3613 16.9663 63.5888 16.1072 64.6054V27.7751C16.1107 24.3013 18.7771 21.4867 22.0663 21.483H51.2609ZM8.88399 67.1861V21.6737C8.88752 18.1999 11.5539 15.3853 14.8431 15.3816H43.9164C45.9218 15.3838 47.6867 16.7811 48.2503 18.8136H22.0663C17.3811 18.8189 13.5847 22.8281 13.5791 27.7751V66.5799C12.1118 67.2926 10.4704 67.5042 8.88399 67.1861ZM72.4106 34.9423L66.2413 62.2057L66.2307 62.2578C65.6741 65.2027 63.2279 67.3247 60.3844 67.3306H17.0919C18.6988 65.847 19.8274 63.8718 20.3205 61.6791L28.1863 32.3526L28.2004 32.2967C28.8303 29.4553 31.2342 27.4481 33.9987 27.4563H66.5594C68.3384 27.4563 70.0236 28.2949 71.1557 29.7436C72.2879 31.1922 72.7478 33.0989 72.4106 34.943V34.9423Z" fill="black"/>
</svg>
