<svg width="27" height="36" viewBox="0 0 27 36" fill="none" xmlns="http://www.w3.org/2000/svg">
<path d="M26.9297 13.5C26.8125 13.8984 26.625 14.2266 26.3672 14.4844L21.8672 18.9844L20.2852 18.5625V0H24.75C25.3828 0 25.916 0.222656 26.3496 0.667969C26.7832 1.11328 27 1.64062 27 2.25V13.5H26.9297ZM12.375 11.25L9 18V0H18.0352V18L14.6602 11.25H12.375ZM0.632812 14.4844C0.375 14.2266 0.1875 13.8984 0.0703125 13.5H0.0351562V13.2891C-0.0117188 13.0547 -0.0117188 12.8086 0.0351562 12.5508V2.25C0.0351562 1.64062 0.251953 1.11328 0.685547 0.667969C1.11914 0.222656 1.65234 0 2.28516 0H6.75V18.5625L5.13281 18.9844L0.632812 14.4844ZM10.125 21.0586L13.5 13.5352L16.875 21.0586L24.7852 22.5L18.9844 27.8086L20.4609 36L13.5 31.9922L6.57422 36L8.05078 27.8086L2.25 22.5L10.125 21.0586Z" fill="black"/>
</svg>
