<svg width="28" height="30" viewBox="0 0 28 30" fill="none" xmlns="http://www.w3.org/2000/svg">
<path d="M26.9015 24.4824C26.1991 22.7984 25.1799 21.2687 23.9005 19.9786C22.625 18.6848 21.114 17.6533 19.451 16.941C19.4361 16.9334 19.4212 16.9296 19.4063 16.9221C21.726 15.2261 23.234 12.4636 23.234 9.34673C23.234 4.18342 19.101 0 14 0C8.89897 0 4.76602 4.18342 4.76602 9.34673C4.76602 12.4636 6.27399 15.2261 8.59365 16.9259C8.57876 16.9334 8.56387 16.9372 8.54897 16.9447C6.8809 17.657 5.3841 18.6784 4.09953 19.9824C2.82133 21.2735 1.80223 22.8029 1.09849 24.4862C0.407141 26.1341 0.0342809 27.9009 9.31068e-05 29.691C-0.000900682 29.7312 0.00606959 29.7712 0.0205934 29.8087C0.0351172 29.8461 0.0569006 29.8802 0.08466 29.909C0.112419 29.9378 0.145593 29.9607 0.182227 29.9764C0.21886 29.992 0.258212 30 0.297963 30H2.53199C2.69582 30 2.82614 29.8681 2.82986 29.706C2.90433 26.7965 4.05858 24.0716 6.09899 22.0063C8.21014 19.8693 11.0139 18.6935 14 18.6935C16.9862 18.6935 19.7899 19.8693 21.901 22.0063C23.9414 24.0716 25.0957 26.7965 25.1701 29.706C25.1739 29.8719 25.3042 30 25.468 30H27.702C27.7418 30 27.7811 29.992 27.8178 29.9764C27.8544 29.9607 27.8876 29.9378 27.9153 29.909C27.9431 29.8802 27.9649 29.8461 27.9794 29.8087C27.9939 29.7712 28.0009 29.7312 27.9999 29.691C27.9627 27.8894 27.5941 26.1369 26.9015 24.4824ZM14 15.8291C12.291 15.8291 10.6825 15.1545 9.47237 13.9296C8.26227 12.7048 7.59579 11.0766 7.59579 9.34673C7.59579 7.61683 8.26227 5.98869 9.47237 4.76382C10.6825 3.53894 12.291 2.86432 14 2.86432C15.709 2.86432 17.3175 3.53894 18.5276 4.76382C19.7377 5.98869 20.4042 7.61683 20.4042 9.34673C20.4042 11.0766 19.7377 12.7048 18.5276 13.9296C17.3175 15.1545 15.709 15.8291 14 15.8291Z" fill="#8E8E8E"/>
</svg>
