<svg width="76" height="70" viewBox="0 0 76 70" fill="none" xmlns="http://www.w3.org/2000/svg">
<path d="M68.3715 2.16985C64.4908 0.950105 59.218 0.179678 53.5234 0.000730025C52.9117 -0.0204539 52.4093 0.445593 52.3899 1.03651C52.3704 1.62743 52.8459 2.12191 53.453 2.14086C65.942 2.53277 72.8496 5.58994 72.8496 7.55392C72.8496 9.79217 64.4342 13.0065 50.9244 13.0065C38.3726 13.0065 29.7775 10.1885 29.0416 7.81481C29.013 7.72283 28.9993 7.63587 28.9993 7.55392C28.9993 5.58994 35.9069 2.53277 48.3959 2.14086C49.003 2.12135 49.4785 1.62688 49.459 1.03651C49.439 0.445593 48.9378 -0.0210115 48.3255 0.000730025C42.6309 0.179678 37.358 0.950105 33.4774 2.16985C29.1103 3.54291 26.802 5.40486 26.802 7.55392V15.2236C14.2215 14.8256 0.0480194 17.41 0.046875 22.7751V62.4365C0.046875 72.4816 48.2917 72.5607 48.2917 62.4365V54.7657C59.6666 55.1325 70.2323 53.1273 73.7096 49.8961C74.5971 49.0716 75.0469 48.1697 75.0469 47.2147V32.2934C75.0469 31.7019 74.5554 31.2231 73.9482 31.2231C73.3411 31.2231 72.8496 31.7019 72.8496 32.2934V33.9943C72.8496 34.3404 72.6287 34.7212 72.1933 35.1259C69.6653 37.4751 62.4681 38.643 58.9759 39.0254C55.4815 39.4084 51.7919 39.5221 48.2917 39.404C48.2917 39.0979 48.2917 28.8488 48.2917 28.3259C55.2011 28.5483 67.452 27.8191 72.8496 24.1354V27.2979C72.8496 27.8894 73.3411 28.3688 73.9482 28.3688C74.5554 28.3688 75.0469 27.8894 75.0469 27.2979C75.0469 26.1863 75.0469 8.40462 75.0469 7.55392C75.0469 5.40486 72.7386 3.54291 68.3715 2.16985ZM28.9993 10.9099C37.1955 16.5521 64.6619 16.5459 72.8496 10.9099V20.7738C72.8496 21.1206 72.6287 21.5019 72.1927 21.9066C70.408 23.5651 66.081 24.6365 63.6652 25.1042C58.794 26.052 53.298 26.3513 48.2917 26.1835V22.7757C48.2917 17.3292 34.5617 15.654 28.9993 15.3234V10.9099ZM46.0945 26.1317V35.9956C46.0945 36.8714 44.5358 38.3358 40.143 39.5807C31.339 42.0748 16.9944 42.0731 8.19564 39.5807C3.80283 38.3358 2.24414 36.8714 2.24414 35.9956V26.1317C10.4902 31.8084 38.0281 31.6846 46.0945 26.1317ZM2.24414 39.3521C10.4724 45.0188 37.9577 44.9553 46.0945 39.3521V49.216C46.0945 50.0918 44.5358 51.5563 40.143 52.8011C31.339 55.2953 16.9944 55.2936 8.19564 52.8011C3.80283 51.5563 2.24414 50.0918 2.24414 49.216V39.3521ZM8.19564 19.1906C17.0248 16.6892 31.3791 16.7076 40.143 19.1906C44.5358 20.4349 46.0945 21.8993 46.0945 22.7757C46.0945 25.0139 37.6791 28.2283 24.1693 28.2283C10.5743 28.2283 2.24471 24.9866 2.24414 22.7757C2.24414 21.8993 3.80283 20.4354 8.19564 19.1906ZM46.0945 62.4365C46.0945 63.3123 44.5358 64.7762 40.143 66.021C31.339 68.5157 16.9944 68.514 8.19564 66.021C3.80283 64.7767 2.24414 63.3123 2.24414 62.4365V52.5726C10.2767 58.1021 37.7723 58.3011 46.0945 52.5726V62.4365ZM72.8496 47.2147C72.8496 47.5615 72.6287 47.9422 72.1933 48.3469C69.556 50.7976 59.979 53.013 48.2917 52.6244C48.2917 52.3184 48.2917 42.0692 48.2917 41.5463C58.7362 41.883 68.6634 40.2123 72.8496 37.3553V47.2147Z" fill="black"/>
</svg>
