<svg width="48" height="49" viewBox="0 0 48 49" fill="none" xmlns="http://www.w3.org/2000/svg">
<path d="M46.5938 49H1.40625C0.629625 49 0 48.3573 0 47.5645V1.43555C0 0.642742 0.629625 0 1.40625 0H46.5938C47.3704 0 48 0.642742 48 1.43555V47.5645C48 48.3573 47.3704 49 46.5938 49Z" fill="#00ACED"/>
<path d="M46.5938 0H24V49H46.5938C47.3704 49 48 48.3573 48 47.5645V1.43555C48 0.642742 47.3704 0 46.5938 0Z" fill="#009CEA"/>
<path d="M39.5082 13.8115L38.7518 14.1014C38.7518 14.1014 39.6312 12.5189 39.896 11.7591C40.0288 11.3778 39.8284 11.1763 39.5957 11.0701C39.3501 10.9579 39.0672 10.9824 38.8295 11.111C37.2398 11.9708 34.9377 12.2475 34.9377 12.2475C33.728 10.8137 31.7598 10.4537 29.7618 10.4349C26.0132 10.3995 22.87 13.4155 22.8069 17.2418C22.7994 17.692 22.8345 18.1327 22.9075 18.5599C15.8246 18.3369 10.5353 11.9612 10.5353 11.9612C6.52361 13.7137 9.77739 20.1482 9.77739 20.1482C6.65129 21.8589 11.254 26.7546 11.254 26.7546C10.1524 30.2783 15.7316 32.6041 15.7316 32.6041C12.6121 34.7075 7.84426 34.2724 7.84426 34.2724C6.6197 34.6887 7.41264 35.561 7.41264 35.561C19.2953 42.4587 28.9905 35.321 28.9905 35.321C38.269 28.3976 37.5188 18.2926 37.5188 18.2926L40.6963 14.6829C40.9886 14.2668 40.7853 14.0131 40.5088 13.8634C40.201 13.6967 39.8344 13.6865 39.5082 13.8115Z" fill="white"/>
<path d="M40.5092 13.8633C40.2014 13.6967 39.8348 13.6864 39.5087 13.8114L38.7522 14.1014C38.7522 14.1014 39.6317 12.5189 39.8964 11.7591C40.0293 11.3778 39.8288 11.1763 39.5961 11.0701C39.3504 10.958 39.0676 10.9824 38.8298 11.111C37.2401 11.9708 34.9381 12.2475 34.9381 12.2475C33.7283 10.8137 31.7602 10.4537 29.7622 10.4349C27.3892 10.4125 25.2601 11.6137 24 13.4684V37.6623C27.1137 36.7022 28.9909 35.3209 28.9909 35.3209C38.2694 28.3975 37.5191 18.2925 37.5191 18.2925L40.6967 14.6828C40.9891 14.2667 40.7857 14.013 40.5092 13.8633Z" fill="#D7F2F9"/>
</svg>
